<svg width="32" height="32" viewBox="0 0 32 32">
  <title>instagram.icon.icon</title>
  <path d="M9.01259,7.1015h13.975a2.41081,2.41081,0,0,1,2.41081,2.41081V23.48753a2.411,2.411,0,0,1-2.411,2.411H9.01259a2.411,2.411,0,0,1-2.411-2.411V9.51247A2.411,2.411,0,0,1,9.01259,7.1015Z" />
  <path d="M23.26911,15.056H21.617a5.35536,5.35536,0,0,1,.24473,1.603A5.75765,5.75765,0,0,1,16.01226,22.325,5.75475,5.75475,0,0,1,10.175,16.659a5.35287,5.35287,0,0,1,.24473-1.603H8.69416v7.93a0.74176,0.74176,0,0,0,.74656.74641h13.0819a0.7417,0.7417,0,0,0,.74649-0.74641v-7.93Z" fill="#fff"/>
  <path d="M16.01226,12.80422a3.661,3.661,0,1,0,3.78137,3.65913A3.71728,3.71728,0,0,0,16.01226,12.80422Z" fill="#fff"/>
  <path d="M20.29515,9.19436h2.12958a0.84438,0.84438,0,0,1,.84438.84438v2.01908a0.84446,0.84446,0,0,1-.84446.84446H20.29546a0.84446,0.84446,0,0,1-.84446-0.84446V10.0385A0.84414,0.84414,0,0,1,20.29515,9.19436Z" fill="#fff"/>
</svg>
