<svg width="32" height="32" viewBox="0 0 32 32">
  <title>itunes.icon.svg</title>
  <path d="M21.71476,16.74088a5.13011,5.13011,0,0,1,2.44953-4.31868,5.29419,5.29419,0,0,0-4.14841-2.24734c-1.76683-.17865-3.44787,1.03987-4.3451,1.03987-0.8944,0-2.2791-1.0135-3.74263-.98585a5.55282,5.55282,0,0,0-4.694,2.84412c-2.00077,3.47125-.51085,8.61517,1.43874,11.42881,0.95251,1.37917,2.088,2.92721,3.57928,2.87174,1.43589-.05672,1.98007-0.93052,3.7164-0.93052s2.22508,0.93052,3.744.90007c1.54662-.02768,2.52567-1.404,3.47125-2.78726A12.53161,12.53161,0,0,0,24.7554,21.331a5.013,5.013,0,0,1-3.04475-4.58871Zm-2.85518-8.4311A5.00139,5.00139,0,0,0,20.0394,4.6875a5.09275,5.09275,0,0,0-3.34123,1.71836,4.76091,4.76091,0,0,0-1.20463,3.51152A4.20325,4.20325,0,0,0,18.8583,8.3112Z"/>
</svg>
