<svg width="32" height="32" viewBox="0 0 32 32">
  <title>locator.small.icon.svg</title>
  <path d="M25.70866,11.094a9.9406,9.9406,0,0,0-2.53-4.49511c-0.027-.02763-0.04981-0.058-0.07679-0.08566-0.02837-.02832-0.06019-0.05181-0.08855-0.08013A9.95556,9.95556,0,0,0,18.50669,3.9033a9.79611,9.79611,0,0,0-4.9971,0,9.95331,9.95331,0,0,0-4.5059,2.52975c-0.02906.02832-.06019,0.05181-0.08855,0.08013-0.02767.02763-.0505,0.058-0.07748,0.08566A9.9328,9.9328,0,0,0,6.30831,11.094a10.06419,10.06419,0,0,0,0,5.00424A9.93146,9.93146,0,0,0,8.83765,20.594c0.027,0.02763.04981,0.058,0.07748,0.085,0.02837,0.029.0595,0.0525,0.08855,0.08082l7.0048,6.99447,7.0048-6.99447c0.02837-.02832.06019-0.05181,0.08855-0.08082,0.027-.02694.04981-0.05734,0.07679-0.085a9.93926,9.93926,0,0,0,2.53-4.4958,10.06422,10.06422,0,0,0,0-5.00424m-4.20385,8.54915-3.15475,3.1501-2.34158,2.33813-2.34223-2.33813L10.5115,19.64246l-0.44679-.44613a8.07225,8.07225,0,0,1-.00065-10.97711l0.44808-.44678a8.0764,8.0764,0,0,1,10.992-.00065L21.9529,8.21987a8.0721,8.0721,0,0,1-.00065,10.97646Z"/>
  <circle cx="15.9996" cy="13.59769" r="2.00366"/>
</svg>
