<svg width="32" height="32.00018" viewBox="0 0 32 32.00018">
  <title>logo.lion.v2</title>
  <path d="M16.70141,11.32807a6.31546,6.31546,0,0,1,1.12512.41216,1.143,1.143,0,0,0,.608.33664,0.98688,0.98688,0,0,0,.45056-0.77952,1.89568,1.89568,0,0,0-.09728-1.07136,1.5104,1.5104,0,0,0-1.43232-.44928,3.75168,3.75168,0,0,0-.98944.15744c-0.3456.105-.82432,0.33664-0.62208,0.81664A1.536,1.536,0,0,0,16.70141,11.32807Z" transform="translate(0 0.00031)"/>
  <path d="M15.92829,0.00009a15.959,15.959,0,1,0,.15405-0.00034Q16.00532-.00046,15.92829.00009ZM6.592,27.22692a2.35645,2.35645,0,0,1-.585-0.71936c-1.3568-2.176-2.12224-9.856-.36736-12.47486,0.55552-.91392,1.152-0.49408.95232,0.2176a5.76639,5.76639,0,0,0,.64,4.19583c1.21472,2.56,4.95743,6.10687,5.94687,7.39455A10.05053,10.05053,0,0,1,15.43677,30.089c-0.00768.33024-.07552,0.54656-0.66048,0.49408A14.5139,14.5139,0,0,1,6.592,27.22692Zm23.48028-7.296c-0.12032.375-.2624,0.84608-0.5696,0.62976a13.75234,13.75234,0,0,0-3.05919-1.68576c-0.06784-.01536-0.06016-0.105-0.03712-0.15744a2.13761,2.13761,0,0,0,.16512-0.599,1.57182,1.57182,0,0,1,.29184-0.5248,5.358,5.358,0,0,0,.55552-1.92,4.66688,4.66688,0,0,0-.0896-1.52064,3.456,3.456,0,0,1-.19328-0.67456c0-.2176.105-0.4416,0.128-0.69632a2.06592,2.06592,0,0,0-1.37216-1.5808c-1.152-.53248-2.36928-1.0112-3.607-1.6704A14.11467,14.11467,0,0,1,20.462,7.92071,13.35678,13.35678,0,0,0,17.34269,6.5716a0.29184,0.29184,0,0,1-.247-0.247,7.26655,7.26655,0,0,0-2.72256-4.224c-0.512-.3968.06016-0.62208,0.768-0.6592A14.57789,14.57789,0,0,1,30.07227,19.92965v0.00128Zm-4.51455-4.90751c-0.00768-.06016-0.02944-0.247-0.02944-0.28416a0.768,0.768,0,0,1,.3072-0.31488,2.67644,2.67644,0,0,1,.42752-0.29952c0.03712-.023.06784,0.02944,0.07552,0.0448a4.07168,4.07168,0,0,1-.03712,2.88511c-0.03712.07552-.09728,0.105-0.12032,0.05248a1.86112,1.86112,0,0,0-.62976-0.7872,0.1472,0.1472,0,0,1-.0448-0.128,3.51869,3.51869,0,0,0,.0512-1.16992v0.00128ZM12.14846,8.19207a4.87807,4.87807,0,0,1,3.87711-.55424,17.664,17.664,0,0,1,2.752,1.00352c0.8768,0.40448,1.50016,1.152,2.3168,1.59616,1.024,0.5696,2.4448.83968,3.53279,1.37088a1.024,1.024,0,0,1,.64.57728,3.91551,3.91551,0,0,1-2.07744-.02944,0.67072,0.67072,0,0,0-.7872.12032,1.15968,1.15968,0,0,0,.07552.95872,1.25312,1.25312,0,0,0,.60032.65152c0.352,0.16512.83968,0.1728,1.16224,0.35968a1.57056,1.57056,0,0,1,.233,2.048,2.82368,2.82368,0,0,1-2.23488.512,6.76991,6.76991,0,0,0-2.56.1344,2.97983,2.97983,0,0,0-1.335,1.28,0.1536,0.1536,0,0,1-.21493.03147l-0.00267-.002c-2.272-1.3632-5.14431-2.06848-6.67391-4.233a4.65663,4.65663,0,0,1-.7424-1.95584A3.863,3.863,0,0,1,12.14846,8.19207ZM8.60159,4.114C8.151,4.06152,8.14463,3.73,8.33919,3.602a10.60351,10.60351,0,0,1,2.07744-1.07136,1.024,1.024,0,0,1,.57728-0.09856A6.34367,6.34367,0,0,1,13.664,3.67624c1.335,0.951,2.52672,2.7648,1.73184,2.615a7.5086,7.5086,0,0,0-.8704-0.128c-0.60032-.05248-0.99712.00768-1.28-0.023A0.55552,0.55552,0,0,1,12.9459,5.9828,7.50975,7.50975,0,0,0,8.60159,4.114ZM20.49532,18.79941a0.864,0.864,0,0,1,.384-0.5248,3.895,3.895,0,0,1,1.58976-.28416,5.11231,5.11231,0,0,0,1.6128-.256,0.98944,0.98944,0,0,1,.88448-0.27776,0.64,0.64,0,0,1,.33792.41216,1.6,1.6,0,0,1,.0896.62208,17.16518,17.16518,0,0,1-.7424,1.73056,0.57727,0.57727,0,0,1-.0896.31488,2.729,2.729,0,0,1-2.11456.27776,2.65473,2.65473,0,0,1-.75776-0.128,1.46562,1.46562,0,0,1-.375-0.3072,8.47227,8.47227,0,0,1-.6528-0.69632,1.08927,1.08927,0,0,1-.29184-0.375,1.536,1.536,0,0,1,.12544-0.50944v0.00128ZM5.23519,6.15944a0.66688,0.66688,0,0,1,.3456-0.2176,8.84223,8.84223,0,0,1,5.58719.47232c0.329,0.14976.48,0.352,0.26112,0.49792A11.43678,11.43678,0,0,0,9.847,8.05127a0.71936,0.71936,0,0,1-.512.105,8.41087,8.41087,0,0,0-5.248.62208c-0.3968.16-.759-0.064-0.57728-0.37888A12.81021,12.81021,0,0,1,5.23519,6.15944Zm-3.607,6.976a0.6272,0.6272,0,0,1,.15744-0.384A10.0723,10.0723,0,0,1,7.43295,9.50023a0.80384,0.80384,0,0,1,.82432.14208c0.128,0.3072-.128.4864-0.4352,0.6592-5.33247,3.18463-4.95743,7.91935-5.00991,9.856,0.01536,0.7936-.55552.937-0.6976,0.56192a13.92254,13.92254,0,0,1-.48768-7.58527Zm6.72,3.72351a6.32831,6.32831,0,0,1,.0896-5.12c0.20992-.3968.41216-0.65152,0.68224-0.57728,0.29184,0.08192.35968,0.375,0.39808,0.92928,0.29184,4.56319,3.05919,6.10687,6.528,7.71711a19.99613,19.99613,0,0,1,8.46719,6.871c0.39808,0.56192.45056,0.896,0.00768,1.22112a14.26559,14.26559,0,0,1-5.14431,2.33728c-0.31488.07552-.64,0.01536-0.93056-0.704-2.92992-7.55839-7.84895-7.21407-10.09918-12.67582Zm18.16317,9.28254c-0.45056.4416-.6976,0.09728-0.84736-0.18688A13.15834,13.15834,0,0,0,23.44444,22.441a0.22784,0.22784,0,0,1,.20992-0.384,1.64737,1.64737,0,0,0,.88448-0.14208,1.77023,1.77023,0,0,0,.81024-1.152c0.128-.43392.128-0.5696,0.39808-0.59136a0.809,0.809,0,0,1,.2624.02944,3.2,3.2,0,0,1,.937.55424,8.791,8.791,0,0,1,1.80736,1.96992,0.512,0.512,0,0,1-.06016.512A14.44351,14.44351,0,0,1,26.51,26.14148h0.00128Z" transform="translate(0 0.00031)"/>
</svg>
