<svg width="32" height="32" viewBox="0 0 32 32">
  <title>logoLion.rev.svg</title>
  <path d="M25.447,11.18424c-1.191-.58524-2.73541-0.87723-3.856-1.506-0.89644-.4956-1.57-1.31136-2.52282-1.75445A18.52668,18.52668,0,0,0,16.06,6.825a5.33635,5.33635,0,0,0-4.235.61086,4.30033,4.30033,0,0,0-1.59693,4.25166,5.05974,5.05974,0,0,0,.81063,2.14632c1.67633,2.37427,4.80873,3.14521,7.288,4.64225a0.16136,0.16136,0,0,0,.22734-0.01976l0.00061-.00073L18.57,18.44408a3.29375,3.29375,0,0,1,1.45607-1.40868,7.3751,7.3751,0,0,1,2.80584-.15111,3.0863,3.0863,0,0,0,2.44343-.56732,1.74164,1.74164,0,0,0-.25613-2.25005c-0.35345-.20362-0.88235-0.21258-1.27038-0.38419a1.34337,1.34337,0,0,1-.65312-0.71715,1.296,1.296,0,0,1-.0794-1.054,0.73252,0.73252,0,0,1,.86442-0.12806,4.37972,4.37972,0,0,0,2.268.03586A1.1167,1.1167,0,0,0,25.447,11.18424Zm-6.25584-.34577a1.07573,1.07573,0,0,1-.49432.85033,1.16025,1.16025,0,0,1-.66208-0.37266,7.28292,7.28292,0,0,0-1.22684-.45206,1.59437,1.59437,0,0,1-1.03218-.64031c-0.22027-.53146.29967-0.7799,0.67873-0.90412a4.14026,4.14026,0,0,1,1.07828-.17288,1.62,1.62,0,0,1,1.56108.4956,2.37555,2.37555,0,0,1,.09733,1.1961h0Z" transform="translate(0.0037 0.01117)"/><path d="M0.33656,12.85929a0.70946,0.70946,0,0,1,.17673-0.4162A10.94163,10.94163,0,0,1,6.67948,8.87272a0.84649,0.84649,0,0,1,.89643.16008c0.14087,0.3368-.14087.53146-0.47639,0.72611C1.28166,13.25756,1.6953,18.44408,1.63383,20.575c0.01793,0.86826-.6083,1.0245-0.76837.61982A15.4571,15.4571,0,0,1,.33656,12.85929Z" transform="translate(0.0037 0.01117)"/><path d="M4.28088,5.205A0.75172,0.75172,0,0,1,4.651,4.96554a9.57521,9.57521,0,0,1,6.097.52249c0.36113,0.16008.5289,0.38419,0.2907,0.54042A13.25055,13.25055,0,0,0,9.30988,7.27706a0.82216,0.82216,0,0,1-.56475.11526A9.232,9.232,0,0,0,3.01818,8.071C2.57765,8.25674,2.18834,8.00061,2.392,7.66381A14.42493,14.42493,0,0,1,4.28088,5.205Z" transform="translate(0.0037 0.01117)"/><path d="M7.95882,2.955c-0.493-.05251-0.493-0.4162-0.2907-0.55707a11.90979,11.90979,0,0,1,2.268-1.17049,1.11158,1.11158,0,0,1,.64031-0.10629A6.91535,6.91535,0,0,1,13.49622,2.485c1.45607,1.045,2.75334,3.02995,1.88764,2.86987a7.59418,7.59418,0,0,0-.95278-0.14215c-0.66208-.06147-1.08469.009-1.3946-0.01793A0.56732,0.56732,0,0,1,12.70992,5.018,8.14475,8.14475,0,0,0,7.95882,2.955Z" transform="translate(0.0037 0.01117)"/><path d="M31.40187,20.30866c-0.12806.40724-.2907,0.92973-0.61726,0.69154A15.17033,15.17033,0,0,0,27.455,19.14842c-0.07043-.01793-0.06147-0.11526-0.03586-0.16776a2.24365,2.24365,0,0,0,.17673-0.65568,1.60207,1.60207,0,0,1,.31759-0.57628,5.82041,5.82041,0,0,0,.59933-2.1079,5.29276,5.29276,0,0,0-.09733-1.67377,3.48971,3.48971,0,0,1-.20234-0.73508c0-.23948.11526-0.479,0.14087-0.762a2.27823,2.27823,0,0,0-1.49961-1.73652c-1.25245-.58524-2.58557-1.1167-3.93535-1.83385a15.56467,15.56467,0,0,1-1.99393-1.7711,14.32376,14.32376,0,0,0-3.40517-1.47912,0.32656,0.32656,0,0,1-.27405-0.27405A8.00389,8.00389,0,0,0,14.26844.73181c-0.55579-.43413.07556-0.68257,0.84393-0.71715A15.98728,15.98728,0,0,1,31.40187,20.30866Z" transform="translate(0.0037 0.01117)"/><path d="M26.47917,14.92237c-0.009-.06147-0.03586-0.27405-0.03586-0.31887a0.88362,0.88362,0,0,1,.33552-0.34577,3.5421,3.5421,0,0,1,.46743-0.32784c0.04354-.02689.07043,0.03586,0.0794,0.05379a4.445,4.445,0,0,1-.04354,3.16185c-0.03586.0794-.10629,0.11526-0.12806,0.05379a2.07973,2.07973,0,0,0-.68769-0.86826,0.18826,0.18826,0,0,1-.05251-0.14215A3.68307,3.68307,0,0,0,26.47917,14.92237Z" transform="translate(0.0037 0.01117)"/>
  <path d="M20.94688,19.069a0.96944,0.96944,0,0,1,.42388-0.57628,4.12872,4.12872,0,0,1,1.7378-.30991,5.39013,5.39013,0,0,0,1.75573-.292,1.0642,1.0642,0,0,1,.96175-0.30095,0.69794,0.69794,0,0,1,.3701.45206,1.6379,1.6379,0,0,1,.09733.68257,20.55646,20.55646,0,0,1-.81191,1.90428,0.61214,0.61214,0,0,1-.09733.34577,2.97361,2.97361,0,0,1-2.31152.30095,2.49083,2.49083,0,0,1-.82984-0.14215,1.65072,1.65072,0,0,1-.41492-0.3368c-0.27405-.25613-0.43285-0.45206-0.71459-0.762a1.38049,1.38049,0,0,1-.32656-0.4162A3.46941,3.46941,0,0,1,20.94688,19.069Z" transform="translate(0.0037 0.01117)"/><path d="M5.76383,28.32535a2.53178,2.53178,0,0,1-.64031-0.79655c-1.49064-2.38324-2.32049-10.81613-.406-13.677,0.60829-1.00145,1.25245-.54042,1.04115.23051a6.37365,6.37365,0,0,0,.69666,4.61024c1.32288,2.8084,5.417,6.70533,6.494,8.114a11.05816,11.05816,0,0,1,2.46135,4.66787c-0.009.3637-.0794,0.59293-0.71459,0.54042A15.831,15.831,0,0,1,5.76383,28.32535Z" transform="translate(0.0037 0.01117)"/>  <path d="M7.67708,16.94319a6.97939,6.97939,0,0,1,.09733-5.6168c0.22923-.43413.4495-0.71715,0.74148-0.62879,0.31759,0.08836.38419,0.4162,0.43285,1.0245,0.32656,5.01363,3.3437,6.69637,7.12922,8.46875a21.79361,21.79361,0,0,1,9.24609,7.539c0.43285,0.61086.49432,0.98352,0.009,1.337a15.4494,15.4494,0,0,1-5.62065,2.56124c-0.34449.0794-.70562,0.01793-1.01425-0.7799C15.503,22.55872,10.12947,22.92625,7.67708,16.94319Z" transform="translate(0.0037 0.01117)"/><path d="M27.51135,27.12925c-0.48536.48664-.76837,0.10629-0.92589-0.21258a14.47105,14.47105,0,0,0-2.42678-3.86235,0.24844,0.24844,0,0,1,.22923-0.42517,1.71731,1.71731,0,0,0,.96175-0.16008A1.94527,1.94527,0,0,0,26.232,21.2115c0.12806-.479.14087-0.61982,0.43285-0.65568a0.87084,0.87084,0,0,1,.2907.03586,3.7407,3.7407,0,0,1,1.0245.61086,9.80444,9.80444,0,0,1,1.976,2.16169,0.5878,0.5878,0,0,1-.06147.56732A15.77464,15.77464,0,0,1,27.51135,27.12925Z" transform="translate(0.0037 0.01117)"/></svg>
