<svg width="47.999" height="47.999" viewBox="0 0 47.999 47.999" class="svgIcon" aria-hidden="true" preserveAspectRatio="xMidYMid meet">
    <title>
        blueray.icon
    </title>
    <path d="M16.46 24a7.515 7.515 0 0 0 2.209 5.33L29.33 18.67a7.54 7.54 0 0 0-12.87 5.33z" fill="none"/>
    <path d="M24 31.539a7.54 7.54 0 0 0 5.33-12.87L18.67 29.33a7.515 7.515 0 0 0 5.33 2.208z"/>
    <path d="M40.97 7.03A24 24 0 1 0 48 24a23.924 23.924 0 0 0-7.03-16.97zM16.46 24a7.54 7.54 0 1 1 2.209 5.33A7.54 7.54 0 0 1 16.46 24zM24 45.989a21.824 21.824 0 0 1-14.064-5.083l8.882-8.881a9.554 9.554 0 0 0 13.207-13.207l8.881-8.882A21.992 21.992 0 0 1 24 45.99z"/>
    <path d="M24 21.99a2.01 2.01 0 0 0-1.422 3.431l2.843-2.843A2.004 2.004 0 0 0 24 21.989z"/>
    <path d="M26.01 24a2.004 2.004 0 0 0-.589-1.422l-2.843 2.843A2.01 2.01 0 0 0 26.01 24z" fill="#fff"/>
</svg>
