<svg width="48.061" height="48.061" viewBox="0 0 48.061 48.061" class="svgIcon" aria-hidden="true" preserveAspectRatio="xMidYMid meet">
    <title>
        cd.icon
    </title>
    <path d="M24.03 9.94a14.091 14.091 0 1 0 14.092 14.09A14.107 14.107 0 0 0 24.03 9.94zm0 21.136a7.046 7.046 0 1 1 7.046-7.045 7.046 7.046 0 0 1-7.045 7.045z"/>
    <path d="M24.03 0a24.03 24.03 0 1 0 24.031 24.03A24.03 24.03 0 0 0 24.031 0zm0 39.569A15.538 15.538 0 1 1 39.57 24.03 15.555 15.555 0 0 1 24.03 39.569z"/>
    <circle cx="24.031" cy="24.031" r="2.013"/>
</svg>
