<svg width="48" height="47.999" viewBox="0 0 48 47.999" class="svgIcon nypl-icon" aria-hidden="true" preserveAspectRatio="xMidYMid meet">
    <title>
        check.circle
    </title>
    <path d="M39.077 13.21a2.117 2.117 0 0 0-2.942.05L20.025 29.37l-8.156-8.157a2.118 2.118 0 0 0-3.003 2.986l.008.008L20.026 35.36l19.103-19.104a2.118 2.118 0 0 0 0-2.995q-.025-.026-.052-.05z"/>
    <path d="M24 47.999a24 24 0 1 1 16.978-7.021A23.939 23.939 0 0 1 24 47.999zm0-44a20 20 0 1 0 14.149 5.852A19.944 19.944 0 0 0 23.999 4z"/>
</svg>
