<svg width="40.307" height="47.991" viewBox="0 0 40.307 47.991" class="svgIcon nypl-icon" aria-hidden="true" preserveAspectRatio="xMidYMid meet">
    <title>
        e-reader.icon
    </title>
    <path d="M3.995.035A4.464 4.464 0 0 0 0 4.238v40.257a3.793 3.793 0 0 0 3.845 3.496h32.608a3.696 3.696 0 0 0 3.854-3.496V4.238c0-2.12-1.591-4.238-3.536-4.238zm32.07 40.222H4.242V4.237h31.821z"/>
    <path d="M9.9 9.181a1.413 1.413 0 0 1 1.414-1.412H29.7a1.413 1.413 0 0 1 1.414 1.412 1.413 1.413 0 0 1-1.414 1.413H11.314A1.413 1.413 0 0 1 9.9 9.181zM9.9 17.657a1.413 1.413 0 0 1 1.414-1.413H29.7a1.413 1.413 0 0 1 1.414 1.413 1.413 1.413 0 0 1-1.414 1.412H11.314A1.413 1.413 0 0 1 9.9 17.657zM9.9 26.132a1.413 1.413 0 0 1 1.414-1.413H29.7a1.413 1.413 0 0 1 1.414 1.413 1.413 1.413 0 0 1-1.414 1.412H11.314A1.413 1.413 0 0 1 9.9 26.132zM9.9 34.607a1.413 1.413 0 0 1 1.414-1.413H29.7a1.413 1.413 0 0 1 1.414 1.413A1.413 1.413 0 0 1 29.7 36.02H11.314A1.413 1.413 0 0 1 9.9 34.607z"/>
</svg>
