<svg width="57" height="67.95" viewBox="0 0 57 67.95" class="svgIcon nypl-icon" aria-hidden="true" preserveAspectRatio="xMidYMid meet">
    <title>
        e-reader.icon
    </title>
    <path d="M5.65.05C2.9.05 0 3.04 0 6v57c0 2.75 2.688 4.95 5.438 4.95H51.55C54.3 67.95 57 65.96 57 63V6c0-3-2.25-6-5-6zM51 57H6V6h45z"/>
    <path d="M14 13a2 2 0 0 1 2-2h26a2 2 0 0 1 2 2 2 2 0 0 1-2 2H16a2 2 0 0 1-2-2zM14 25a2 2 0 0 1 2-2h26a2 2 0 0 1 2 2 2 2 0 0 1-2 2H16a2 2 0 0 1-2-2zM14 37a2 2 0 0 1 2-2h26a2 2 0 0 1 2 2 2 2 0 0 1-2 2H16a2 2 0 0 1-2-2zM14 49a2 2 0 0 1 2-2h26a2 2 0 0 1 2 2 2 2 0 0 1-2 2H16a2 2 0 0 1-2-2z"/>
</svg>
