<svg width="48" height="36.909" viewBox="0 0 48 36.909" class="svgIcon nypl-icon" aria-hidden="true" preserveAspectRatio="xMidYMid meet">
    <title>
        envelope
    </title>
    <path d="M46.052 36.91H1.948A1.938 1.938 0 0 1 0 34.981V1.927A1.937 1.937 0 0 1 1.948 0h44.104A1.938 1.938 0 0 1 48 1.927v33.055a1.938 1.938 0 0 1-1.948 1.927zM3.896 33.054h40.208V3.854H3.896z"/>
    <path d="M24 25.007a1.915 1.915 0 0 1-1.176-.402l-11.93-9.251a1.925 1.925 0 0 1 2.352-3.049L24 20.644l10.754-8.339a1.925 1.925 0 0 1 2.352 3.049l-11.93 9.25a1.917 1.917 0 0 1-1.176.403z"/>
</svg>
