<svg width="48" height="32.495" viewBox="0 0 48 32.495" class="svgIcon nypl-icon" aria-hidden="true" preserveAspectRatio="xMidYMid meet">
    <title>
        fastforward.icon
    </title>
    <path d="M46.891 14.63L18.651.295a2.888 2.888 0 0 0-2.42-.057A1.896 1.896 0 0 0 15 1.913v4.143L3.651.296a2.888 2.888 0 0 0-2.42-.058A1.896 1.896 0 0 0 0 1.913v28.669a1.896 1.896 0 0 0 1.231 1.676 2.89 2.89 0 0 0 2.42-.059L15 26.44v4.143a1.896 1.896 0 0 0 1.231 1.676 2.89 2.89 0 0 0 2.42-.059l28.24-14.334A1.862 1.862 0 0 0 48 16.248a1.863 1.863 0 0 0-1.109-1.618zM4.761 27.11V5.385L15 10.582v11.331zm15-14.112l6.4 3.25-6.4 3.249zm0 14.113v-3.089l12.13-6.157A1.862 1.862 0 0 0 33 16.248a1.863 1.863 0 0 0-1.109-1.618l-12.13-6.158V5.384l21.4 10.864z"/>
</svg>
