<svg width="47.195" height="47.233" viewBox="0 0 47.195 47.233" class="svgIcon" aria-hidden="true" preserveAspectRatio="xMidYMid meet">
    <title>
        filter.icon
    </title>
    <circle cx="14.343" cy="4.693" r="3.237"/>
    <circle cx="30.362" cy="3.239" r="3.237"/>
    <path d="M28.71 15.422a3.236 3.236 0 1 1-3.238-3.24 3.237 3.237 0 0 1 3.237 3.24zM19.003 47.233a2.333 2.333 0 0 1-2.332-2.332V26.698L.62 9.39a2.332 2.332 0 1 1 3.425-3.167l17.29 18.646V44.9a2.333 2.333 0 0 1-2.332 2.332zM28.266 41.43a2.446 2.446 0 0 1-2.121-2.488V24.885L43.132 6.207a2.333 2.333 0 0 1 3.461 3.127L30.808 26.682v12.426a2.333 2.333 0 0 1-2.542 2.323z"/>
</svg>
