<svg width="47.998" height="40.856" viewBox="0 0 47.998 40.856" class="svgIcon" aria-hidden="true" preserveAspectRatio="xMidYMid meet">
    <title>
        hidden
    </title>
    <path d="M38.258 9.78l5.421-5.421A2.553 2.553 0 1 0 40.07.748L33.266 7.55a28.456 28.456 0 0 0-9.268-1.592C10.745 5.958 0 15.84 0 20.428c0 2.74 3.832 7.365 9.74 10.648l-5.421 5.421a2.553 2.553 0 1 0 3.61 3.611l6.802-6.802A28.456 28.456 0 0 0 24 34.898c13.254 0 24-9.882 24-14.47 0-2.74-3.833-7.365-9.74-10.648zM13.97 20.428A9.957 9.957 0 0 1 24 10.546a10.086 10.086 0 0 1 4.966 1.304l-3.212 3.213a5.642 5.642 0 0 0-7.12 7.12l-3.264 3.263a9.712 9.712 0 0 1-1.4-5.018zM24 30.31a10.086 10.086 0 0 1-4.968-1.304l3.213-3.213a5.642 5.642 0 0 0 7.12-7.12l3.263-3.263a9.712 9.712 0 0 1 1.4 5.018A9.957 9.957 0 0 1 24 30.31z"/>
</svg>
