<svg width="68.377" height="46.279" viewBox="0 0 68.377 46.279" class="svgIcon nypl-icon" aria-hidden="true" preserveAspectRatio="xMidYMid meet">
    <title>
        libcard.icon
    </title>
    <path d="M61.554 46.28H6.824A6.832 6.832 0 0 1 0 39.453V6.824A6.833 6.833 0 0 1 6.825 0h54.729a6.832 6.832 0 0 1 6.823 6.825v32.63a6.832 6.832 0 0 1-6.823 6.824zM6.824 3.31A3.52 3.52 0 0 0 3.31 6.824v32.63a3.52 3.52 0 0 0 3.516 3.515h54.729a3.519 3.519 0 0 0 3.514-3.516V6.824a3.519 3.519 0 0 0-3.514-3.515z"/>
    <path d="M56.943 14.56H42.59a1.707 1.707 0 1 1 0-3.413h14.353a1.707 1.707 0 0 1 0 3.413zM56.943 20.971H42.59a1.707 1.707 0 1 1 0-3.413h14.353a1.707 1.707 0 1 1 0 3.413zM56.943 27.382H42.59a1.707 1.707 0 1 1 0-3.414h14.353a1.707 1.707 0 1 1 0 3.414zM34.463 38.09h-.009l-10.807-.056-10.786.055h-.009a1.708 1.708 0 0 1-1.707-1.706v-3.517c0-3.176 1.35-5.821 3.615-7.109.712-.524 3.662-2.405 9.34-2.405 5.36 0 7.774 1.728 8.56 2.464 2.393 1.375 3.51 3.493 3.51 6.641v3.926a1.708 1.708 0 0 1-1.707 1.706zm-10.816-3.47l9.11.047v-2.21c0-2.265-.744-3.12-1.944-3.764a1.7 1.7 0 0 1-.52-.43v.001c-.006 0-1.531-1.498-6.192-1.498-5.007 0-7.32 1.742-7.343 1.76a1.996 1.996 0 0 1-.253.166c-1.219.656-1.946 2.216-1.946 4.174v1.801zm-3.988-11.916a1.707 1.707 0 0 1-1.597-1.103c-.772-2.04-2.063-5.454.224-8.545a6.446 6.446 0 0 1 10.747.006c2.273 3.086 1.039 6.366.222 8.536a1.707 1.707 0 0 1-3.195-1.202c.948-2.518 1.223-3.956.224-5.313a3.041 3.041 0 0 0-2.576-1.497h-.105a3.055 3.055 0 0 0-2.569 1.494c-1.007 1.362-.732 2.798.22 5.313a1.708 1.708 0 0 1-1.595 2.311z"/>
</svg>
