<svg width="47.338" height="47.276" viewBox="0 0 47.338 47.276" class="svgIcon nypl-icon" aria-hidden="true" preserveAspectRatio="xMidYMid meet">
    <title>
        loggedin.icon
    </title>
    <path d="M23.82 0c-4.726 0-8.556 4.541-8.556 10.144s3.83 10.143 8.555 10.143 8.556-4.541 8.556-10.143S28.545 0 23.819 0zM43.067 47.276H4.27a4.269 4.269 0 0 1-3.973-5.834l4.922-12.844a4.34 4.34 0 0 1 3.294-2.796 105.424 105.424 0 0 1 15.189-1.32 101.454 101.454 0 0 1 14.877 1.287 4.579 4.579 0 0 1 3.41 2.83l5.052 12.843a4.272 4.272 0 0 1-3.974 5.834z"/>
</svg>
