<svg width="47.338" height="47.276" viewBox="0 0 47.338 47.276" class="svgIcon nypl-icon" aria-hidden="true" preserveAspectRatio="xMidYMid meet">
    <title>
        login.icon
    </title>
    <path d="M23.82 3.762c2.597 0 4.792 2.922 4.792 6.382s-2.195 6.381-4.793 6.381-4.793-2.922-4.793-6.381 2.195-6.382 4.793-6.382m0-3.762c-4.725 0-8.555 4.541-8.555 10.144s3.83 10.143 8.555 10.143 8.556-4.541 8.556-10.143S28.545 0 23.819 0zM43.067 47.276H34.12a2.09 2.09 0 0 1 0-4.18h8.948L38.1 30.129a.603.603 0 0 0-.22-.245 98.304 98.304 0 0 0-14.177-1.223 101.171 101.171 0 0 0-14.54 1.272c.052 0-.005.071-.047.178L4.193 42.955l9.026.14a2.09 2.09 0 0 1 0 4.18h-8.95a4.269 4.269 0 0 1-3.972-5.833l4.922-12.844a4.34 4.34 0 0 1 3.294-2.796 105.424 105.424 0 0 1 15.189-1.32 101.454 101.454 0 0 1 14.877 1.287 4.579 4.579 0 0 1 3.41 2.83l5.052 12.843a4.272 4.272 0 0 1-3.974 5.834z"/>
</svg>
