<svg width="39.227" height="47.409" viewBox="0 0 39.227 47.409" class="svgIcon nypl-icon" aria-hidden="true" preserveAspectRatio="xMidYMid meet">
    <title>
        marker.small.dot
    </title>
    <circle cx="19.603" cy="20.585" r="4.027"/>
    <path d="M38.609 14.737a19.502 19.502 0 0 0-4.955-8.815c-.052-.055-.097-.114-.15-.168-.056-.056-.118-.102-.173-.158a19.487 19.487 0 0 0-8.825-4.96 19.155 19.155 0 0 0-9.786 0 19.483 19.483 0 0 0-8.823 4.96c-.057.056-.118.102-.174.158-.054.054-.098.113-.151.168a19.487 19.487 0 0 0-4.953 8.815 19.765 19.765 0 0 0 0 9.814 19.484 19.484 0 0 0 4.953 8.817c.053.054.097.113.152.166.055.057.116.103.173.159l13.717 13.716L33.33 33.693c.055-.056.117-.102.173-.159.053-.053.098-.112.15-.167a19.5 19.5 0 0 0 4.955-8.816 19.765 19.765 0 0 0 0-9.814M19.614 42.266l-11.64-11.64a15.848 15.848 0 0 1 0-21.527l.877-.876a15.798 15.798 0 0 1 21.524-.001l.88.879a15.847 15.847 0 0 1-.002 21.526z"/>
</svg>
