<svg width="47.282" height="40" viewBox="0 0 47.282 40" class="svgIcon nypl-icon" aria-hidden="true" preserveAspectRatio="xMidYMid meet">
    <title>
        neoclassic.icon
    </title>
    <path d="M13.329 9.245a1.466 1.466 0 0 0 .766-.217l9.536-5.834 9.536 5.834a1.47 1.47 0 0 0 1.535-2.509L24.398.216a1.473 1.473 0 0 0-1.535 0L12.56 6.519a1.47 1.47 0 0 0 .769 2.726zM45.811 36.982h-1.564V20.08h1.423a1.51 1.51 0 0 0 0-3.018h-5.817a1.51 1.51 0 0 0 0 3.018h1.376v16.902H6.218V20.08h1.8a1.51 1.51 0 0 0 0-3.018H2.202a1.51 1.51 0 0 0 0 3.018h.997v16.902H1.47a1.51 1.51 0 0 0 0 3.018h44.341a1.51 1.51 0 0 0 0-3.018z"/>
    <path d="M21.007 35.128a1.504 1.504 0 0 0 1.509-1.47V22.512a5.435 5.435 0 1 0-10.866 0v11.146a1.51 1.51 0 0 0 3.019 0V22.512a2.424 2.424 0 1 1 4.829 0v11.146a1.504 1.504 0 0 0 1.509 1.47zM34.287 35.128a1.504 1.504 0 0 0 1.509-1.47V22.512a5.435 5.435 0 1 0-10.866 0v11.146a1.51 1.51 0 0 0 3.019 0V22.512a2.424 2.424 0 1 1 4.829 0v11.146a1.504 1.504 0 0 0 1.509 1.47zM2.06 14.647h43.613a1.51 1.51 0 0 0 0-3.018H2.06a1.51 1.51 0 0 0 0 3.018z"/>
</svg>
