<svg height="426" width="725" viewBox="0 0 725 426" class="svgIcon nypl-logo reverse" aria-hidden="true" preserveAspectRatio="xMidYMid meet" aria-labelledby="nypl-reverse-logo">
  <title id="nypl-reverse-logo">nypl.reverse.logo</title>
    <g class="mark">
      <path d="M249.9426,221.7037c-11.67035-5.71289-26.82806-8.57428-37.85925-14.69928-8.732-4.8418-15.42584-12.84033-24.82471-17.15045a187.19288,187.19288,0,0,0-29.53333-10.77136c-19.49847-4.79694-35.87592,1.44916-41.55762,5.94476-10.60535,8.38184-18.89294,22.00629-15.65869,41.6059,1.36969,8.28625,3.92041,15.25592,7.97223,20.98834,16.44727,23.22845,47.23,30.77637,71.61719,45.43066a1.57933,1.57933,0,0,0,2.3042-.31738c4.09619-6.02539,7.42633-10.874,14.3252-13.74219,7.00488-2.92383,18.02679-1.93158,27.53033-1.46783,9.81976.47174,20.41736-.44818,23.976-5.52338,4.25641-6.06049,4.00745-18.26947-2.48529-21.999-3.48437-2.00775-8.67969-2.09955-12.46881-3.84668a13.47114,13.47114,0,0,1-6.42279-6.99512c-1.27881-2.78125-2.46729-7.34857-.81012-10.32806,1.52594-2.74609,5.37366-1.96979,8.463-1.251,6.126,1.40533,16.35938,2.8974,22.25146.31152C258.49735,227.00637,252.2908,222.85012,249.9426,221.7037Zm-61.51068-3.35162c-.52338,2.73145-2.18951,8.00781-4.854,8.35059-2.68262.34271-4.61621-2.53314-6.53961-3.61224-3.2475-1.81061-7.83826-2.99615-12.08-4.39941-3.66022-1.212-8.67834-2.7149-10.1485-6.20709-2.207-5.19824,2.9458-7.65924,6.65375-8.7998a37.792,37.792,0,0,1,10.60754-1.69092c6.70007-.32129,13.09906.63818,15.3476,4.8501C188.7756,209.37942,189.19022,214.41262,188.43192,218.35208Z"/>
      <path d="M3.28933,238.105a7.15318,7.15318,0,0,1,1.7041-4.1054c1.8965-2.837,24.9155-28.667,60.5947-34.9253,4.6954-.6739,8.0791-.3482,8.8487,1.5336,1.3476,3.2989-1.3848,5.2012-4.6719,7.1045-57.2236,34.19929-53.167,85.0411-53.7148,105.8389.1723,8.5059-5.9712,10.0566-7.5059,6.0479C1.82893,301.27979-3.81757,272.56689,3.28933,238.105Z"/>
      <path d="M42.009,163.2066a6.85457,6.85457,0,0,1,3.6768-2.3052,94.67607,94.67607,0,0,1,59.8979,5.0962c3.566,1.5776,5.1709,3.814,2.8306,5.3149-2.9766,1.73-11.9966,7.5957-16.9819,12.2417-1.4497,1.2496-4.0352,1.315-5.5591,1.1128-18.6108-2.4536-28.2783-3.9018-56.2564,6.7032-4.2924,1.8051-8.1533-.6509-6.1782-4.0254C27.16483,180.6724,35.82643,169.5103,42.009,163.2066Z"/>
      <path d="M78.17162,141.2491c-4.8115-.5479-4.8798-4.06741-2.8457-5.4385a117.91531,117.91531,0,0,1,22.2432-11.4688,11.28211,11.28211,0,0,1,6.2163-1.0405c6.2881.6289,16.7007,4.8628,28.6489,13.3877,14.3301,10.2241,27.0762,29.6475,18.5513,28.07569a79.772,79.772,0,0,0-9.3643-1.37059c-6.4575-.5728-10.6953.0903-13.6718-.21341a6.13062,6.13062,0,0,1-3.2315-1.71629C112.62432,150.61969,98.65412,143.7369,78.17162,141.2491Z"/>
      <path d="M308.38942,311.01709c-1.2891,4.0264-2.8223,9.0752-6.1055,6.7344-6.1025-4.541-19.663-13.2676-32.7959-18.1123-.7041-.1572-.624-1.1377-.3759-1.68951a24.304,24.304,0,0,0,1.7509-6.41109c.3731-2.2842,2.0206-3.8096,3.1534-5.6416,3.3662-5.3769,5.19041-14.7461,5.9248-20.5937a51.66234,51.66234,0,0,0-.9385-16.3477c-.4971-2.1318-2.0332-4.87891-1.9922-7.2353.0391-2.3057,1.124-4.7217,1.3457-7.4434.6504-7.876-9.29-14.4434-14.71339-16.9736-12.30911-5.7461-25.38721-10.8858-38.67971-17.8985-7.5039-3.958-13.5254-12.6396-19.54629-17.2993-6.08061-4.6929-25.627-12.4453-33.43661-14.50781-1.7656-.55569-2.3901-1.28909-2.6889-2.69339-3.2193-15.36761-12.2911-32.2964-29.23149-45.3877-5.4858-4.2631.6651-6.68791,8.2207-7.0561C267.37962,108.3775,335.91683,217.981,308.38942,311.01709Z"/>
      <path d="M260.03052,258.33649c-.0854-.6065-.3462-2.6592-.3442-3.083.0073-1.0821,2.2324-2.5557,3.272-3.3809a33.20061,33.20061,0,0,1,4.5913-3.2314c.4306-.27151.7177.35349.7754.47849,4.3906,6.666,2.7451,23.13671-.4278,30.97071-.3672.7959-1.039,1.1074-1.3135.5224a19.85528,19.85528,0,0,0-6.7773-8.4599,1.66987,1.66987,0,0,1-.5103-1.3731A33.63328,33.63328,0,0,0,260.03052,258.33649Z"/>
      <path d="M205.73412,298.87939a9.5921,9.5921,0,0,1,4.169-5.665c3.9961-2.5078,10.6362-2.6143,17.0444-3.05471,6.209-.417,12.8438-.78219,17.2617-2.82229,2.6753-1.2304,5.3492-4.7314,9.48-2.9482a6.83972,6.83972,0,0,1,3.6045,4.418,16.04565,16.04565,0,0,1,.9297,6.6543c-.5947,7.6836-6.8355,11.4355-7.958,18.6181-.1055,1.1104-.2935,2.7168-.9317,3.3545-4.7636,4.8496-14.186,3.8311-22.705,2.9717-3.0503-.3018-6.065-.3848-8.1275-1.3672a17.81069,17.81069,0,0,1-4.0595-3.2646,95.87675,95.87675,0,0,1-7.0005-7.4483c-.9258-1.03809-3.02539-2.917-3.1631-4.05759C204.15752,303.17339,205.32983,300.03179,205.73412,298.87939Z"/>
      <path d="M56.54763,389.438a25.15513,25.15513,0,0,1-6.2705-7.7578c-14.5869-23.3135-22.7622-105.8838-3.9648-133.8887,5.9809-9.8125,12.3178-5.289,10.2114,2.2959-3.5991,17.0264-1.3931,26.5674,6.8867,45.043,13.0107,27.457,53.1738,65.5752,63.8057,79.4004,18.2256,23.7119,24.2915,40.9863,24.2094,45.6396-.0981,3.5694-.7836,5.8458-7.039,5.3174C111.385,422.87159,79.48362,409.191,56.54763,389.438Z"/>
      <path d="M75.41242,278.08839c-10.0655-24.5215-3.4932-46.6006.9541-54.9765,2.2412-4.2256,4.4326-6.9864,7.2934-6.1915,3.1133.8672,3.8325,4.0547,4.2622,9.961,3.1665,49.0156,32.8155,65.5185,70.0528,82.8242,29.3808,15.0186,62.8071,32.1895,90.8208,73.7813,4.2397,6.0058,4.852,9.6484.0659,13.0878-17.0816,11.6602-32.5542,19.7881-55.1924,25.0674-3.4067.7979-6.92239.1992-9.9409-7.5869C152.28,333.02489,99.47783,336.67729,75.41242,278.08839Z"/>
      <path d="M270.20192,377.70849c-4.7876,4.7871-7.5049,1.0362-9.0669-2.039-6.7065-14.2588-13.2563-26.1905-23.8183-37.75-1.8282-1.8535-.418-4.458,2.271-4.1924a17.16413,17.16413,0,0,0,9.47111-1.5381c3.20069-1.374,6.86529-5.8613,8.69339-12.3037,1.332-4.7012,1.395-6.084,4.2749-6.376a9.50073,9.50073,0,0,1,2.8203.3399c3.5059.999,7.2705,3.8642,10.0205,5.9726,7.0547,5.3897,17.5801,17.2852,19.42191,21.1328,1.16989,2.4512.05079,4.1123-.60941,5.5127C289.989,354.01419,278.34642,369.65579,270.20192,377.70849Z"/>
    </g>
    <g class="type">
      <g>
        <path d="M357.51152,5.53569h5.52731L403.74191,64.4615V5.53569h5.3155v68.248h-5.2315l-41.084-59.34809V73.78369h-5.2304Z"/>
        <path d="M419.81421,48.876c0-13.8442,8.0147-25.1181,21.0069-25.1181,12.5273,0,19.3828,10.039,18.3476,24.0004h-33.7021V48.876c.0849,11.1572,4.8095,21.4072,16.4941,21.4072a24.18985,24.18985,0,0,0,14.1299-4.5981l2.2783,4.2061a28.24158,28.24158,0,0,1-16.62109,5.0292C426.783,74.9204,419.81421,62.9014,419.81421,48.876Zm34.041-5.5469c-.1191-7.3803-3.8877-14.93841-13.23039-14.93841-8.49221,0-13.42871,6.54441-14.86141,14.93841Z"/>
        <path d="M465.40211,24.896h5.7363l11.8965,40.68269L495.83283,24.896h5.25579l12.7813,40.7891,12.0195-40.7891h5.31641L516.44021,73.78369h-4.8906L498.34251,32.5733l-13.247,41.21039h-4.92869Z"/>
        <path d="M578.85911,48.0533,555.99,5.53569h6.3769l19.3614,36.87251h.1679l19.3672-36.87251h5.7481L584.38841,48.0533V73.78369h-5.5293Z"/>
        <path d="M602.39231,49.4029c0-12.3164,6.5801-25.645,21.9356-25.645,15.414,0,22.4824,13.2446,22.4824,25.435,0,12.2739-7.0019,25.7275-22.3574,25.7275C609.09941,74.9204,602.39231,61.6778,602.39231,49.4029Zm38.7852,0c0-10.9668-5.8418-21.01221-17.0195-21.01221-11.0508,0-16.0703,9.83441-16.0703,20.80221,0,11.0513,5.3925,21.0903,16.49212,21.0903C635.75561,70.2832,641.17751,60.4546,641.17751,49.4029Z"/>
        <path d="M656.99983,24.896h5.35538v8.5205c1.8242-3.5893,6.2461-9.6586,13.1211-9.6586a12.66936,12.66936,0,0,1,4.7246.8432l-1.3144,5.0191a9.87157,9.87157,0,0,0-4-.7168c-6.7813,0-11.17968,7.9731-12.5313,10.8408V73.78369h-5.35538Z"/>
        <path d="M690.05251,0h5.3301V73.78369h-5.3301Zm5.7949,46.32469L717.31811,24.896h6.6211l-21.6367,21.42869,22.7754,27.459h-6.6602Z"/>
      </g>
      <g>
        <path d="M357.58472,108.334h14.878c14.3417,0,23.36911,7.086,23.36911,19.2764,0,12.3135-8.52151,19.9936-24.002,19.9936h-8.60451v29.0196h-5.6406Zm14.1612,34.4605c12.9912,0,18.3476-5.9473,18.3476-14.9737,0-8.5205-5.1455-14.6748-18.13769-14.6748h-8.73051v29.6485Z"/>
        <path d="M404.43241,162.2818V127.7095h5.31641v33.4336c0,7.1719,2.57129,11.76759,10.03809,11.76759,7.2978,0,13.3281-6.874,14.9736-9.74219v-35.459h5.3145v39.4678a41.93265,41.93265,0,0,0,.9277,9.4463h-5.4326a55.03651,55.03651,0,0,1-.7178-8.0147c-2.3437,3.7119-7.89549,9.1416-16.1748,9.1416C408.42941,177.7505,404.43241,171.0562,404.43241,162.2818Z"/>
        <path d="M453.40411,174.0503V102.80769h5.3388V132.2085a17.35309,17.35309,0,0,1,12.79891-5.6103c13.95989,0,20.70989,11.1714,20.70989,25.3906,0,13.75289-9.2373,25.7617-24.17089,25.7617C462.21951,177.7505,456.77811,176.313,453.40411,174.0503Zm33.208-21.84661c0-10.667-4.1055-20.79739-15.9991-20.79739a17.4975,17.4975,0,0,0-11.8701,5.52639V171.1841a21.92234,21.92234,0,0,0,9.5293,1.8975C480.66483,173.0816,486.61211,162.32469,486.61211,152.20369Z"/>
        <path d="M504.21561,102.80769h5.3574V176.6236h-5.3574Z"/>
        <path d="M524.08183,113.2691a4.06986,4.06986,0,1,1,8.13959,0,4.07149,4.07149,0,1,1-8.13959,0Zm1.34279,14.4404h5.40521v48.9141h-5.40521Z"/>
        <path d="M541.12091,152.11669c0-15.48039,8.9003-25.51849,21.5127-25.51849,7.2978,0,11.8945,2.7407,14.5429,5.103l-2.7744,3.9131a17.49252,17.49252,0,0,0-11.8945-4.4194c-10.8535,0-15.7774,9.4467-15.7774,20.7099,0,10.8418,4.85261,21.1768,15.7051,21.1768a20.03675,20.03675,0,0,0,12.5166-4.3467l2.3184,3.9844c-2.6182,2.3447-7.7608,5.0312-15.1836,5.0312C548.06031,177.7505,541.12091,165.1939,541.12091,152.11669Z"/>
      </g>
      <path d="M357.51152,279.59919v-68.2491h14.5527v56.545h25.4307v11.7041Z"/>
      <g>
        <path d="M415.14331,223.24659a8.21017,8.21017,0,0,1-8.3017-8.1865,8.0934,8.0934,0,0,1,8.3017-8.0137,8.182,8.182,0,0,1,8.4014,8.0137A8.298,8.298,0,0,1,415.14331,223.24659Zm-6.8642,56.3526v-49.9024h13.7382v49.9024Z"/>
        <path d="M447.62383,205.78179v27.7988a17.75226,17.75226,0,0,1,12.21679-5.1475c12.498,0,21.2031,8.60359,21.2031,25.8155,0,17.04-11.4893,26.584-26.5478,26.584-11.2637,0-18.1377-2.875-20.5-3.9756v-71.0752Zm0,63.2295a18.87693,18.87693,0,0,0,6.87209,1.1406c7.5918,0,12.1044-5.6104,12.1044-15.9033,0-9.3213-3.1669-15.0576-10.5449-15.0576a12.03063,12.03063,0,0,0-8.43159,3.8378Z"/>
        <path d="M519.407,241.65969a10.36126,10.36126,0,0,0-5.2725-1.08009c-6.0302,0-9.6162,5.3184-10.8799,7.5489v31.4707h-13.6035v-49.9024h13.6035v6.752c2.1504-3.7129,6.28321-8.0157,12.6114-8.0157,3.7109,0,5.6914.7178,6.7754,1.3682Z"/>
        <path d="M555.42941,279.59919a25.71557,25.71557,0,0,1-.7958-5.31551,18.52926,18.52926,0,0,1-14.0225,6.54891c-8.5498,0-15.0938-5.1133-15.0938-14.0186,0-13.0312,13.419-17.7549,26.6211-17.7549h1.77641V246.191c0-4.3028-1.77641-7-8.10251-7-6.4532,0-10.8829,3.415-12.7373,4.7236l-5.9063-8.3106c2.99411-2.6152,9.49611-7.1709,20.20411-7.1709,13.625,0,20.07808,5.2735,20.07808,18.47559v17.92581a67.25857,67.25857,0,0,0,1.4336,14.7647Zm-1.51459-22.127h-1.77641c-7.93359,0-13.497,2.3447-13.497,8.207,0,3.6534,2.997,5.18749,6.0322,5.18749a12.25565,12.25565,0,0,0,9.24121-4.40909Z"/>
        <path d="M608.65311,241.65969a10.37,10.37,0,0,0-5.2725-1.08009c-6.0312,0-9.6181,5.3184-10.872,7.5489v31.4707H578.87283v-49.9024h13.63578v6.752c2.15822-3.7129,6.2744-8.0157,12.6015-8.0157,3.711,0,5.6943.7178,6.8115,1.3682Z"/>
        <path d="M616.60621,229.69679h14.5117l11.0996,32.8613h.5l10.1661-32.8613h14.0449l-20.625,55.21489c-4.418,11.77051-9.6192,18.64451-23.2422,18.64451a28.0433,28.0433,0,0,1-7.7188-.8858l1.9825-10.7548a17.884,17.884,0,0,0,4.7714.4629c6.9961,0,9.44342-3.3311,11.4258-8.6709l1.8555-5.1211Z"/>
      </g>
    </g>
</svg>
