<svg height="407" width="725" viewBox="0 0 725 407" class="svgIcon nypl-logo" aria-hidden="true" preserveAspectRatio="xMidYMid meet" aria-labelledby="nypl-logo">
  <title id="nypl-logo">nypl.logo.lockup</title>
  <g class="mark">
    <g>
      <path d="M182.3 196.6c-2-3.8-7.8-4.7-13.9-4.4a37.91 37.91 0 0 0-9.6 1.5c-3.4 1-8 3.3-6 8 1.3 3.2 5.9 4.5 9.2 5.6 3.8 1.3 8 2.3 10.9 4 1.7 1 3.5 3.6 5.9 3.3s3.9-5.1 4.4-7.5c.7-3.7.4-8.2-.9-10.5z"/>
      <path d="M154.4 97C69.3 97 0 166.2 0 252.2s69.8 155.3 154.5 155.3c86 0 155.7-69.2 155.7-155.2C310.1 166.2 240.4 97 154.4 97zM63.8 361.1a24.752 24.752 0 0 1-5.7-7c-13.2-21.1-20.6-95.7-3.6-121 5.4-8.9 11.1-4.8 9.2 2.1-3.3 15.4-1.3 24 6.2 40.7 11.8 24.8 48.1 59.3 57.7 71.8 16.5 21.4 22 37 21.9 41.2-.1 3.2-.7 5.3-6.4 4.8-29.7-2.3-58.6-14.7-79.3-32.6zm227.6-70.8c-1.2 3.6-2.6 8.2-5.5 6.1-5.5-4.1-17.8-12-29.6-16.4-.6-.1-.6-1-.3-1.5a26.003 26.003 0 0 0 1.6-5.8c.3-2.1 1.8-3.4 2.9-5.1 3-4.9 4.7-13.3 5.4-18.6a48.467 48.467 0 0 0-.8-14.8c-.4-1.9-1.8-4.4-1.8-6.5s1-4.3 1.2-6.7c.6-7.1-8.4-13.1-13.3-15.3-11.1-5.2-22.9-9.8-35-16.2-6.8-3.6-12.2-11.4-17.7-15.6s-23.2-11.2-30.2-13.1c-1.6-.5-2.2-1.2-2.4-2.4-2.9-13.9-11.1-29.2-26.4-41-5-3.9.6-6 7.4-6.4 107.5-3.9 169.4 95.2 144.5 179.3zm-43.7-47.6c-.1-.5-.3-2.4-.3-2.8 0-1 2-2.3 3-3.1a32.196 32.196 0 0 1 4.1-2.9c.4-.2.6.3.7.4 4 6 2.5 20.9-.4 28-.3.7-.9 1-1.2.5-1.5-3.2-3.6-6.1-6.1-7.6a1.583 1.583 0 0 1-.5-1.2 28.106 28.106 0 0 0 .7-11.3zm-130-66.3c5.1-4.1 19.9-9.7 37.6-5.4a170.702 170.702 0 0 1 26.7 9.7c8.5 3.9 14.5 11.1 22.4 15.5 10 5.5 23.7 8.1 34.2 13.3 2.1 1 7.7 4.8 6.2 5.6-5.3 2.3-14.6 1-20.1-.3-2.8-.6-6.3-1.4-7.6 1.1-1.5 2.7-.4 6.8.7 9.3 1.4 3 3.3 5.2 5.8 6.3 3.4 1.6 8.1 1.7 11.3 3.5 5.9 3.4 6.1 14.4 2.2 19.9-3.2 4.6-12.8 5.4-21.7 5-8.6-.4-18.6-1.3-24.9 1.3-6.2 2.6-9.2 7-12.9 12.4a1.448 1.448 0 0 1-2.1.3c-22-13.2-49.9-20.1-64.7-41.1-3.7-5.2-6-11.5-7.2-19-3-17.5 4.5-29.8 14.1-37.4zm-34.3-39.6c-4.3-.5-4.4-3.7-2.6-4.9a109.199 109.199 0 0 1 20.1-10.4 9.493 9.493 0 0 1 5.6-.9c5.7.6 15.1 4.4 25.9 12.1 12.9 9.2 24.5 26.8 16.8 25.4a78.972 78.972 0 0 0-8.5-1.2c-5.8-.5-9.7.1-12.4-.2a5.223 5.223 0 0 1-2.9-1.6c-10.9-9.8-23.5-16-42-18.3zm115.2 142.5a8.815 8.815 0 0 1 3.8-5.1c3.6-2.3 9.6-2.4 15.4-2.8 5.6-.4 11.6-.7 15.6-2.6 2.4-1.1 4.8-4.3 8.6-2.7a6.514 6.514 0 0 1 3.3 4 14.115 14.115 0 0 1 .8 6c-.5 6.9-6.2 10.3-7.2 16.8-.1 1-.3 2.5-.8 3-4.3 4.4-12.8 3.5-20.5 2.7-2.8-.3-5.5-.3-7.3-1.2a16.89 16.89 0 0 1-3.7-2.9 81.317 81.317 0 0 1-6.3-6.7c-.8-.9-2.7-2.6-2.9-3.7-.2-.9.9-3.8 1.2-4.8zM50.7 156.7a7.21 7.21 0 0 1 3.3-2.1 85.622 85.622 0 0 1 54.1 4.6c3.2 1.4 4.7 3.4 2.6 4.8-2.7 1.6-10.8 6.9-15.3 11.1-1.3 1.1-3.6 1.2-5 1-16.8-2.2-25.6-3.5-50.8 6.1-3.9 1.6-7.4-.6-5.6-3.6 3.3-6.1 11.1-16.2 16.7-21.9zm-35 67.7a6.797 6.797 0 0 1 1.5-3.7c1.7-2.6 22.5-25.9 54.8-31.6 4.2-.6 7.3-.3 8 1.4 1.2 3-1.3 4.7-4.2 6.4-51.7 30.9-48 76.9-48.5 95.7.2 7.7-5.4 9.1-6.8 5.5-6.1-16.6-11.2-42.6-4.8-73.7zm65.2 36.1c-9.1-22.2-3.2-42.1.9-49.7 2-3.8 4-6.3 6.6-5.6 2.8.8 3.5 3.7 3.9 9 2.9 44.3 29.7 59.2 63.3 74.9 26.6 13.6 56.8 29.1 82.1 66.7 3.8 5.4 4.4 8.7.1 11.8-15.4 10.5-29.4 17.9-49.9 22.7-3.1.7-6.3.2-9-6.9-28.5-73.2-76.3-69.9-98-122.9zm176 90.1c-4.3 4.3-6.8.9-8.2-1.8-6.1-12.9-12-23.7-21.5-34.1-1.7-1.7-.4-4 2.1-3.8a15.936 15.936 0 0 0 8.6-1.4c2.9-1.2 6.2-5.3 7.9-11.1 1.2-4.2 1.3-5.5 3.9-5.8a7.433 7.433 0 0 1 2.5.3c3.2.9 6.6 3.5 9.1 5.4 6.4 4.9 15.9 15.6 17.6 19.1 1.1 2.2 0 3.7-.6 5-3.5 6.8-14 20.9-21.4 28.2z"/>
      <path d="M162.1 207.3c3.8 1.3 8 2.3 10.9 4 1.7 1 3.5 3.6 5.9 3.3s3.9-5.1 4.4-7.5c.7-3.6.3-8.1-.9-10.4-2-3.8-7.8-4.7-13.9-4.4a37.91 37.91 0 0 0-9.6 1.5c-3.4 1-8 3.3-6 8 1.3 3 5.9 4.4 9.2 5.5z"/>
    </g>
  </g>
  <g class="type">
    <g>
      <path d="M364.2 5.5h5.5l40.1 58.1V5.5h5.2v67.2h-5.1l-40.5-58.5v58.5h-5.1V5.5zM425.6 48.2c0-13.6 7.9-24.7 20.7-24.7 12.3 0 19.1 9.9 18.1 23.6h-33.2v1.1c.1 11 4.7 21.1 16.3 21.1a23.723 23.723 0 0 0 13.9-4.5l2.2 4.1a27.89 27.89 0 0 1-16.4 4.9c-14.8 0-21.6-11.8-21.6-25.6zm33.5-5.4c-.1-7.3-3.8-14.7-13-14.7-8.4 0-13.2 6.5-14.6 14.7zM470 24.6h5.7l11.7 40.1L500 24.6h5.1l12.6 40.2 11.8-40.2h5.3l-14.5 48.2h-4.8l-13-40.6-13 40.6h-4.8zM581.2 47.4L558.7 5.5h6.3l19.1 36.3h.2l19.1-36.3h5.7l-22.4 41.9v25.3h-5.5zM604.5 48.7c0-12.1 6.5-25.2 21.6-25.2s22.1 13 22.1 25c0 12.1-6.9 25.3-22 25.3-15.2 0-21.7-13-21.7-25.1zm38.1 0c0-10.8-5.8-20.7-16.8-20.7-10.9 0-15.9 9.7-15.9 20.5 0 10.9 5.4 20.8 16.3 20.8 11.1 0 16.4-9.7 16.4-20.6zM658.3 24.6h5.3V33c1.8-3.5 6.2-9.5 12.9-9.5a13.063 13.063 0 0 1 4.6.8l-1.3 4.9a9.95 9.95 0 0 0-3.9-.7c-6.7 0-11 7.9-12.3 10.7v33.5h-5.3zM690.8 0h5.2v72.7h-5.2zm5.7 45.7l21.1-21.1h6.6l-21.3 21.1 22.4 27.1h-6.6z"/>
    </g>
    <g>
        <path d="M364.3 106.7h14.6c14.1 0 23 7 23 19 0 12.1-8.4 19.7-23.6 19.7h-8.5V174h-5.6v-67.3zm13.9 33.9c12.8 0 18.1-5.9 18.1-14.7 0-8.4-5-14.4-17.9-14.4h-8.6v29.2h8.4zM410.4 159.8v-34h5.3v32.9c0 7.1 2.5 11.6 9.9 11.6 7.2 0 13.1-6.8 14.7-9.6v-34.9h5.2v38.9a41.265 41.265 0 0 0 .9 9.3H441a52.493 52.493 0 0 1-.7-7.9c-2.3 3.6-7.8 9-16 9-9.9-.1-13.9-6.7-13.9-15.3zM458.7 171.4v-70.2h5.2v29a17.263 17.263 0 0 1 12.6-5.6c13.7 0 20.4 11 20.4 25 0 13.5-9.1 25.3-23.8 25.3-5.7.1-11.1-1.3-14.4-3.5zm32.7-21.5c0-10.5-4-20.5-15.8-20.5a17.019 17.019 0 0 0-11.7 5.5v33.7a21.995 21.995 0 0 0 9.4 1.9c12.2 0 18.1-10.6 18.1-20.6zM507.7 101.2h5.3v72.7h-5.3zM527.3 111.5a3.95 3.95 0 1 1 7.9 0 3.953 3.953 0 1 1-7.9 0zm1.3 14.2h5.4v48.2h-5.4zM544.1 149.8c0-15.2 8.8-25.1 21.2-25.1 7.2 0 11.7 2.7 14.3 5l-2.7 3.8a17.367 17.367 0 0 0-11.7-4.3c-10.7 0-15.5 9.3-15.5 20.4 0 10.7 4.7 20.9 15.4 20.9a19.317 19.317 0 0 0 12.3-4.3l2.3 3.9c-2.6 2.3-7.7 4.9-14.9 4.9-13.9 0-20.7-12.3-20.7-25.2z"/>
    </g>
    <g>
      <path d="M362.8 275.1v-67.2h14.3v55.7h25v11.5zM419.5 219.5a8.088 8.088 0 0 1-8.2-8.1 7.986 7.986 0 0 1 8.2-7.9 8.005 8.005 0 1 1 0 16zm-6.7 55.6v-49.2h13.5v49.2zM451.6 202.4v27.4a17.646 17.646 0 0 1 12-5c12.3 0 20.9 8.5 20.9 25.4 0 16.8-11.3 26.1-26.1 26.1-11.1 0-17.9-2.8-20.2-3.9v-70zm0 62.3a19.047 19.047 0 0 0 6.8 1.1c7.5 0 11.9-5.6 11.9-15.6 0-9.2-3.1-14.8-10.4-14.8a11.86 11.86 0 0 0-8.3 3.7zM522.2 237.7a9.622 9.622 0 0 0-5.2-1.1c-6 0-9.5 5.3-10.7 7.5v31h-13.4v-49.2h13.4v6.7c2.1-3.6 6.2-7.9 12.4-7.9 3.6 0 5.6.7 6.7 1.3zM557.8 275.1a26.874 26.874 0 0 1-.8-5.3 18.24 18.24 0 0 1-13.8 6.5c-8.4 0-14.8-5-14.8-13.8 0-12.8 13.2-17.5 26.2-17.5h1.7v-2.8c0-4.2-1.7-6.9-8-6.9a20.634 20.634 0 0 0-12.5 4.6l-5.9-8.2c2.9-2.6 9.4-7.1 19.9-7.1 13.4 0 19.8 5.1 19.8 18.2v17.7A65.822 65.822 0 0 0 571 275h-13.2zm-1.6-21.8h-1.7c-7.9 0-13.3 2.3-13.3 8.1 0 3.6 2.9 5.1 6 5.1a12.187 12.187 0 0 0 9.1-4.3v-8.9zM609.6 237.7a9.457 9.457 0 0 0-5.1-1.1c-6 0-9.5 5.3-10.7 7.5v31h-13.4v-49.2h13.4v6.7c2.1-3.6 6.2-7.9 12.4-7.9 3.6 0 5.6.7 6.7 1.3zM617.7 225.9H632l10.9 32.4h.5l10-32.4h13.8l-20.3 54.4c-4.3 11.6-9.5 18.4-22.9 18.4a26.998 26.998 0 0 1-7.6-.9l1.9-10.6a15.316 15.316 0 0 0 4.7.5c6.9 0 9.3-3.3 11.2-8.6l1.8-5z"/>
    </g>
  </g>
</svg>
