<svg width="68" height="49.849" viewBox="0 0 68 49.849" class="svgIcon" aria-hidden="true" preserveAspectRatio="xMidYMid meet">
    <title>
        openbook.icon
    </title>
    <path d="M66.187 3.529c-14.676-6.596-28.184-2.24-32.406-.54a41.674 41.674 0 0 0-32.266.585A2.893 2.893 0 0 0 0 6.33v40.448a2.898 2.898 0 0 0 1.237 2.6 2.894 2.894 0 0 0 2.87.162c.138-.069 13.821-6.55 28.481.04.056.024.088.033.144.054.072.028.132.05.207.072a2.95 2.95 0 0 0 .374.092c.066.01.129.014.195.02.097.01.191.031.287.031.03 0 .058-.012.089-.013a3.059 3.059 0 0 0 .721-.103c.057-.016.11-.041.166-.06a3.04 3.04 0 0 0 .368-.133c.138-.069 13.875-6.55 28.532.04A3.07 3.07 0 0 0 68 46.777V6.33a3.07 3.07 0 0 0-1.813-2.801zM62 42.322a42.455 42.455 0 0 0-28.024 1.125A41.816 41.816 0 0 0 6 42.357V8.397c4-1.503 15.05-4.49 26.671.734.058.026.05.037.11.059.062.024.092.043.156.063a2.804 2.804 0 0 0 .371.094c.065.01.122.017.188.023a2.961 2.961 0 0 0 .376.018c.08-.002.16-.01.24-.019a3.053 3.053 0 0 0 .325-.048 3.05 3.05 0 0 0 .287-.079c.09-.029.18-.059.267-.096.049-.02.17-.03.218-.054C35.34 9.025 48 3.061 62 8.381z"/>
    <path d="M33.91 33.94a2.438 2.438 0 0 1-2.44-2.44V19.738a2.439 2.439 0 0 1 4.878 0V31.5a2.438 2.438 0 0 1-2.439 2.44z"/>
</svg>
