<svg width="48.021" height="48.021" viewBox="0 0 48.021 48.021" class="svgIcon nypl-icon" aria-hidden="true" preserveAspectRatio="xMidYMid meet">
    <title>
        search.circle.icon
    </title>
    <path d="M17.465 30.792a.982.982 0 0 0 1.389 0l2.737-2.736a6.042 6.042 0 1 0-1.466-1.312l-2.66 2.66a.982.982 0 0 0 0 1.388zm7.358-3.757a4.068 4.068 0 1 1 4.068-4.067 4.072 4.072 0 0 1-4.068 4.067z"/>
    <path d="M7.04 40.98a24 24 0 1 1 16.97 7.041 23.939 23.939 0 0 1-16.97-7.04zM38.99 9.033a21.183 21.183 0 1 0 6.204 14.979A21.045 21.045 0 0 0 38.99 9.03z"/>
</svg>
