<svg width="68" height="68.148" viewBox="0 0 68 68.148" class="svgIcon nypl-icon" aria-hidden="true" preserveAspectRatio="xMidYMid meet">
    <title>
        settings.icon
    </title>
    <path d="M30 55.148A10.947 10.947 0 0 0 20.148 48c-4.384 0-7.764 3.238-9.148 7.148H3a3 3 0 0 0-3 3 3 3 0 0 0 3 3h8c1.384 3.91 4.764 7 9.148 7a10.808 10.808 0 0 0 9.852-7h35a3 3 0 0 0 3-3 3 3 0 0 0-3-3zm-13.147 3.584a3.36 3.36 0 1 1 2.637 2.637 3.365 3.365 0 0 1-2.637-2.637zM38 37a10.947 10.947 0 0 0 9.852 7.148c4.384 0 7.764-3.238 9.148-7.148h8a3 3 0 0 0 3-3 3 3 0 0 0-3-3h-8c-1.384-3.91-4.764-7-9.148-7A10.808 10.808 0 0 0 38 31H3a3 3 0 0 0-3 3 3 3 0 0 0 3 3zm13.147-3.584a3.36 3.36 0 1 1-2.637-2.637 3.365 3.365 0 0 1 2.637 2.637zM30 7.148A10.947 10.947 0 0 0 20.148 0C15.764 0 12.384 3.238 11 7.148H3a3 3 0 0 0-3 3 3 3 0 0 0 3 3h8c1.384 3.91 4.764 7 9.148 7a10.808 10.808 0 0 0 9.852-7h35a3 3 0 0 0 3-3 3 3 0 0 0-3-3zm-13.147 3.584a3.36 3.36 0 1 1 2.637 2.637 3.365 3.365 0 0 1-2.637-2.637z"/>
</svg>
