<svg width="47.81" height="20.917" viewBox="0 0 47.81 20.917" class="svgIcon nypl-icon" aria-hidden="true" preserveAspectRatio="xMidYMid meet">
    <title>
        soundcloud.icon
    </title>
    <path d="M41.644 9.067a6.33 6.33 0 0 0-2.384.46A10.716 10.716 0 0 0 28.428 0a11.347 11.347 0 0 0-3.937.71c-.464.171-.586.346-.586.694v18.8a.72.72 0 0 0 .66.701c.014.003 16.97.009 17.082.009a6.048 6.048 0 0 0 6.163-5.927 6.05 6.05 0 0 0-6.166-5.923zm-22.968 11.85h1.494l.747-10.467L20.17 0h-1.494l-.747 10.45zm-4.483 0H12.7l-.747-7.6.747-7.34h1.494l.747 7.47zm-7.47 0h1.494l.747-5.977-.747-5.976H6.723l-.747 5.976zM.747 17.929h1.494l.747-2.989-.747-2.988H.747L0 14.94z"/>
</svg>
