<svg width="53.027" height="65.133" viewBox="0 0 53.027 65.133" class="svgIcon" aria-hidden="true" preserveAspectRatio="xMidYMid meet">
    <title>
        apple.icon
    </title>
    <path d="M44.298 34.604c-.08-8.249 6.726-12.204 7.032-12.399a15.199 15.199 0 0 0-11.91-6.452c-5.072-.512-9.898 2.986-12.474 2.986-2.567 0-6.543-2.91-10.744-2.83a15.941 15.941 0 0 0-13.476 8.165c-5.744 9.965-1.467 24.733 4.13 32.81 2.735 3.96 5.995 8.404 10.276 8.245 4.122-.163 5.684-2.672 10.67-2.672s6.387 2.672 10.748 2.584c4.44-.08 7.25-4.03 9.965-8.002a35.977 35.977 0 0 0 4.512-9.258 14.392 14.392 0 0 1-8.741-13.173zM36.1 10.399A14.358 14.358 0 0 0 39.488 0a14.62 14.62 0 0 0-9.592 4.933c-2.107 2.44-3.951 6.337-3.458 10.081 3.657.282 7.39-1.856 9.66-4.61z"/>
</svg>
