<svg width="47.75" height="39.072" viewBox="0 0 47.75 39.072" class="svgIcon" aria-hidden="true" preserveAspectRatio="xMidYMid meet">
    <title>
        applied
    </title>
    <path d="M33.087 21.885v6.895a5.405 5.405 0 0 1-5.405 5.404h-17.39a5.405 5.405 0 0 1-5.404-5.404V11.39a5.405 5.405 0 0 1 5.404-5.405h17.39a5.397 5.397 0 0 1 4.653 2.665v-.02l3.498-3.5a10.265 10.265 0 0 0-8.151-4.032h-17.39A10.304 10.304 0 0 0 0 11.39v17.39a10.304 10.304 0 0 0 10.292 10.292h17.39A10.304 10.304 0 0 0 37.974 28.78V16.997z"/>
    <path d="M46.967.782Q46.935.75 46.901.72a2.671 2.671 0 0 0-3.712.064L37.21 6.761l-4.123 4.123-10.22 10.22-10.292-10.29a2.672 2.672 0 0 0-3.788 3.767l.01.01 14.07 14.07 10.22-10.22 4.887-4.888 8.994-8.993a2.672 2.672 0 0 0 0-3.779z"/>
</svg>
