<svg width="48" height="47.999" viewBox="0 0 48 47.999" class="svgIcon" aria-hidden="true" preserveAspectRatio="xMidYMid meet">
    <title>
        circle.wedge
    </title>
    <path d="M30.535 35.567L18.99 24.037l11.628-11.696a2.075 2.075 0 0 0 .01-2.901 2.278 2.278 0 0 0-3.243-.026l-14.6 14.56L27.48 38.618a2.16 2.16 0 0 0 3.065-.015 2.16 2.16 0 0 0-.01-3.037z"/>
    <path d="M24 47.999a24 24 0 1 1 16.978-7.021A23.939 23.939 0 0 1 24 47.999zm0-44a20 20 0 1 0 14.149 5.852A19.944 19.944 0 0 0 23.999 4z"/>
</svg>
