<svg aria-hidden="true" class="nypl-icon" preserveAspectRatio="xMidYMid meet" viewBox="0 0 19 22">
  <title>filter.icon.3</title>
  <g>
    <circle cx="6.65947" cy="2.31986" r="1.31924"/>
    <circle cx="13.18733" cy="1.31986" r="1.31895"/>
    <circle cx="9.56477" cy="5.46901" r="1.31927"/>
    <g>
      <path d="M7.74355,22.50683a.95047.95047,0,0,1-.95022-.95022V11.28645L.25259,4.23413A.95041.95041,0,1,1,1.64824,2.94366l7.04554,7.598v11.015A.95047.95047,0,0,1,7.74355,22.50683Z"/>
      <path d="M11.60384,19.73881a.95047.95047,0,0,1-.95022-.95022V10.5478l7.126-7.81485a.95047.95047,0,0,1,1.41049,1.27439l-6.636,7.27293v7.50832A.95047.95047,0,0,1,11.60384,19.73881Z"/>
    </g>
  </g>
</svg>
