<svg width="32" height="32" viewBox="0 0 32 32">
  <title>soundCloud.icon</title>
  <path d="M24.37754,15.72291a2.98981,2.98981,0,0,0-1.12585.21775A5.0609,5.0609,0,0,0,18.13611,11.441a5.35866,5.35866,0,0,0-1.85911.33491,0.31581,0.31581,0,0,0-.277.328v8.87925a0.33981,0.33981,0,0,0,.31143.33078c0.00691,0.00141,8.01517.00406,8.06753,0.00406a2.80044,2.80044,0,1,0-.00141-5.59649v0.00141ZM13.53041,21.31939H14.236l0.3528-4.94325L14.236,11.441h-0.7056l-0.3528,4.93513Zm-2.11679,0H10.708l-0.3528-3.58867,0.3528-3.46731h0.7056l0.3528,3.528Zm-3.528,0h0.7056L8.944,18.497l-0.3528-2.82239H7.88562L7.53282,18.497ZM5.06323,19.9082h0.7056l0.3528-1.4112-0.3528-1.4112H5.06323L4.71043,18.497Z" />
</svg>
