<svg width="32" height="32" viewBox="0 0 32 32">
  <title>tumblr.icon.svg</title>
  <path d="M16.67149,7.07068v4.51358h4.23674v2.80307H16.67149v4.57952a7.31911,7.31911,0,0,0,.16358,1.99328,1.36182,1.36182,0,0,0,.61263.705,2.5789,2.5789,0,0,0,1.35569.3546A4.88228,4.88228,0,0,0,21.501,21.138v2.81746a10.70756,10.70756,0,0,1-2.07252.7557,8.74272,8.74272,0,0,1-2.00741.21811,6.93937,6.93937,0,0,1-2.16467-.30939,4.67086,4.67086,0,0,1-1.60525-.88253,3.196,3.196,0,0,1-.9212-1.21767,5.26554,5.26554,0,0,1-.25654-1.869v-6.2634H10.499V11.8611A5.2741,5.2741,0,0,0,12.302,10.881,4.88324,4.88324,0,0,0,13.5064,9.34668a6.92875,6.92875,0,0,0,.62534-2.276h2.53976Z">
</svg>
