<svg width="48" height="39.009" viewBox="0 0 48 39.009" class="svgIcon" aria-hidden="true" preserveAspectRatio="xMidYMid meet">
    <title>
        twitter.icon
    </title>
    <path d="M48 4.618a19.686 19.686 0 0 1-5.656 1.55A9.876 9.876 0 0 0 46.674.72a19.717 19.717 0 0 1-6.254 2.39 9.857 9.857 0 0 0-16.78 8.982A27.958 27.958 0 0 1 3.341 1.802 9.859 9.859 0 0 0 6.389 14.95a9.808 9.808 0 0 1-4.46-1.232l-.001.124a9.854 9.854 0 0 0 7.9 9.656 9.873 9.873 0 0 1-4.448.17 9.858 9.858 0 0 0 9.2 6.838 19.76 19.76 0 0 1-12.23 4.216A20.046 20.046 0 0 1 0 34.584a27.874 27.874 0 0 0 15.096 4.425c18.113 0 28.019-15.006 28.019-28.02q0-.64-.029-1.273A20.014 20.014 0 0 0 48 4.618z"/>
</svg>
