<svg width="32" height="32" viewBox="0 0 32 32">
  <title>twitter.icon.svg</title>
  <path d="M26.49768,9.48856a8.61073,8.61073,0,0,1-2.474.67827,4.31994,4.31994,0,0,0,1.894-2.38309A8.62415,8.62415,0,0,1,23.18238,8.829a4.31151,4.31151,0,0,0-7.34014,3.92869A12.22874,12.22874,0,0,1,6.96393,8.25719,4.31221,4.31221,0,0,0,8.297,14.008a4.28992,4.28992,0,0,1-1.951-.53878l-0.00037.05415a4.31,4.31,0,0,0,3.45531,4.2237,4.31827,4.31827,0,0,1-1.94526.07379,4.31191,4.31191,0,0,0,4.0238,2.99146,8.64284,8.64284,0,0,1-5.34958,1.84387A8.7682,8.7682,0,0,1,5.50232,22.596,12.25026,12.25026,0,0,0,24.3608,12.27558q0-.28012-0.01245-0.55723A8.7542,8.7542,0,0,0,26.49768,9.48856Z" />
</svg>
