<svg width="37.974" height="37.974" viewBox="0 0 37.974 37.974" class="svgIcon" aria-hidden="true" preserveAspectRatio="xMidYMid meet">
    <title>
        unapplied
    </title>
    <path d="M35.833 4.033a10.344 10.344 0 0 0-2.547-2.361c-.055-.036-.113-.068-.169-.103a10.26 10.26 0 0 0-.782-.444c-.088-.045-.177-.086-.267-.129q-.366-.173-.747-.318a10.324 10.324 0 0 0-.308-.113 10.191 10.191 0 0 0-.76-.225c-.109-.029-.217-.06-.327-.085a10.28 10.28 0 0 0-.8-.14c-.106-.016-.21-.037-.315-.049A10.396 10.396 0 0 0 27.682 0h-17.39a10.396 10.396 0 0 0-1.128.066c-.106.012-.21.033-.315.048-.27.039-.538.082-.8.141-.111.025-.22.056-.329.085-.256.066-.51.14-.759.225-.103.036-.206.074-.308.113q-.381.145-.747.318a10.281 10.281 0 0 0-1.05.573c-.055.035-.113.067-.168.103A10.289 10.289 0 0 0 0 10.292v17.39a10.304 10.304 0 0 0 10.292 10.292h17.39a10.304 10.304 0 0 0 10.292-10.292v-17.39a10.247 10.247 0 0 0-2.14-6.259zm-2.746 23.65a5.431 5.431 0 0 1-.11 1.088 5.375 5.375 0 0 1-.813 1.933 5.297 5.297 0 0 1-3.078 2.175 5.352 5.352 0 0 1-1.404.208h-17.39a5.405 5.405 0 0 1-5.404-5.405v-17.39a5.363 5.363 0 0 1 .843-2.874c.061-.098.127-.192.194-.286a5.43 5.43 0 0 1 .445-.54c.045-.047.085-.1.131-.146a5.433 5.433 0 0 1 .67-.553c.077-.055.157-.106.236-.156a5.389 5.389 0 0 1 .667-.362c.05-.023.097-.052.148-.073a5.372 5.372 0 0 1 .864-.268c.082-.019.165-.034.248-.05a5.4 5.4 0 0 1 .958-.096h17.39a5.396 5.396 0 0 1 .958.096c.083.015.166.031.249.05a5.372 5.372 0 0 1 .863.268c.051.021.098.05.148.073a5.389 5.389 0 0 1 .667.362c.08.05.159.101.236.156a5.433 5.433 0 0 1 .67.553c.047.046.086.099.131.147a5.43 5.43 0 0 1 .446.54c.067.093.132.187.194.285a5.363 5.363 0 0 1 .843 2.874v17.39z"/>
</svg>
