<svg width="32" height="32" viewBox="0 0 32 32">
  <title>youtube.icon.svg</title>
  <g>
    <path d="M11.30886,5.21875L9.82525,8.10762,8.34164,5.21875H6.44935L9.123,9.7961l0.01606-.01051v3.5191h1.37232V9.78558L10.52609,9.7961l2.67506-4.57735H11.30886Z" />
    <path d="M15.31453,7.91406a0.68927,0.68927,0,0,1,.68616.67383V11.2832a0.68627,0.68627,0,0,1-1.37232,0V8.58789A0.68835,0.68835,0,0,1,15.31453,7.91406Zm0-1.34766A2.0459,2.0459,0,0,0,13.256,8.58789V11.2832a2.05882,2.05882,0,0,0,4.117,0V8.58789a2.0459,2.0459,0,0,0-2.05848-2.02148h0Z" />
    <path d="M21.49,6.56641v5.30643c-0.599.4896-1.37232,0.78434-1.37232-.96209V6.56641H18.74532v4.61818h0.00274c0.02,1.11465.25992,3.12036,2.74189,1.4897v0.6304h1.37232V6.56641H21.49Z" />
    <path d="M23.54844,20.043a0.67965,0.67965,0,0,0-.68616.67383v0.67383H24.2346V20.7168A0.68053,0.68053,0,0,0,23.54844,20.043Z" />
    <path d="M17.373,20.7168v3.5376c0.46508,0.45675,1.37232.50537,1.37232-.16846V20.92733C18.74532,20.2535,18.05916,20.043,17.373,20.7168Z" />
    <path d="M26.86671,17.4648a2.84425,2.84425,0,0,0-.85372-1.90033,2.947,2.947,0,0,0-1.95267-.80162c-1.49555-.07234-4.91963-0.11051-7.9283-0.11051s-6.67537.03682-8.17092,0.11051a2.94733,2.94733,0,0,0-1.95267.80162,2.84412,2.84412,0,0,0-.85358,1.90033c-0.08851,1.58188-.13408,2.15436-0.13408,2.94665q0,1.18661.13408,3.55876a2.84454,2.84454,0,0,0,.85358,1.90033,2.95361,2.95361,0,0,0,1.95267.80145c1.49555,0.0725,5.16362.10926,8.17092,0.10926s6.43137-.03676,7.9283-0.10926a2.95333,2.95333,0,0,0,1.95267-.80145,2.84467,2.84467,0,0,0,.85372-1.90033q0.1126-1.97822.11253-3.55876C26.97924,19.356,26.94177,18.78348,26.86671,17.4648ZM9.13909,25.43359H7.76677V18.69531H6.39445V17.34766h4.117v1.34766H9.13909v6.73828Zm5.48928,0H13.256v-0.6304c-2.60933,1.43714-2.72186.04609-2.74189-1.06734H10.51141V20.04432h1.37232V23.757c0,0.81466.7733,0.73569,1.37232,0.24473V20.04432h1.37232v5.38928Zm5.48928-1.36609c0,1.40817-1.46879,1.8188-2.74464.72383v0.64226H16.00069V17.34766H17.373V19.5376c1.37232-1.34766,2.74464-.84229,2.74464.50537v4.02454Zm5.48928-2.67688v0.67383H22.86228v1.34766a0.68627,0.68627,0,0,0,1.37232,0V22.73828h1.37232v0.67383a2.05882,2.05882,0,0,1-4.117,0V20.7168a2.05882,2.05882,0,0,1,4.117,0v0.67383Z" />
  </g>
</svg>
