<?xml version="1.0" encoding="utf-8"?>
<!-- Generator: Adobe Illustrator 20.0.0, SVG Export Plug-In . SVG Version: 6.00 Build 0)  -->
<svg version="1.1" id="Layer_1" xmlns="http://www.w3.org/2000/svg" xmlns:xlink="http://www.w3.org/1999/xlink" x="0px" y="0px"
	 viewBox="0 0 426.7 427.1" style="enable-background:new 0 0 426.7 427.1;" xml:space="preserve">
<style type="text/css">
	.st0{fill:#FFFFFF;}
</style>
<g>
	<g>
		<path class="st0" d="M328.3,155c-14.5-7.1-33.4-10.7-47.1-18.3c-10.9-6-19.2-16-30.9-21.3c-11.9-5.8-29.9-11.7-36.7-13.4
			c-24.2-6-44.6,1.8-51.7,7.4c-13.2,10.4-23.5,27.4-19.5,51.7c1.7,10.3,4.9,19,9.9,26.1c20.4,28.9,58.7,38.3,89,56.5
			c1.1,0.7,2.2,0.5,2.9-0.4c5.1-7.5,9.2-13.5,17.8-17.1c8.7-3.6,22.4-2.4,34.2-1.8c12.2,0.6,25.4-0.6,29.8-6.9
			c5.3-7.5,5-22.7-3.1-27.4c-4.3-2.5-10.8-2.6-15.5-4.8c-3.4-1.6-6.1-4.6-8-8.7c-1.6-3.5-3.1-9.1-1-12.8c1.9-3.4,6.7-2.4,10.5-1.6
			c7.6,1.7,20.3,3.6,27.7,0.4C338.9,161.6,331.2,156.4,328.3,155z M251.8,150.8c-0.7,3.4-2.7,10-6,10.4s-5.7-3.1-8.1-4.5
			c-4-2.3-9.7-3.7-15-5.5c-4.6-1.5-10.8-3.4-12.6-7.7c-2.7-6.5,3.7-9.5,8.3-10.9c4.3-1.3,7.5-1.8,13.2-2.1c8.3-0.4,16.3,0.8,19.1,6
			C252.3,139.6,252.8,145.9,251.8,150.8z"/>
	</g>
</g>
<path class="st0" d="M21.6,175.4c0.4-2.5,0.6-3.2,2.1-5.1c2.4-3.5,31-35.6,75.3-43.4c5.8-0.8,10-0.4,11,1.9c1.7,4.1-1.7,6.5-5.8,8.8
	c-71.1,42.5-66.1,105.7-66.8,131.6c0.2,10.6-7.4,12.5-9.3,7.5C19.8,253.9,12.8,218.2,21.6,175.4z"/>
<path class="st0" d="M69.8,82.2c1.5-1.5,2.4-2.3,4.6-2.9c27.3-6.8,54.7-2.5,74.5,6.3c4.4,2,6.4,4.7,3.5,6.6
	c-3.7,2.2-14.9,9.4-21.1,15.2c-1.8,1.6-5,1.6-6.9,1.4c-23.1-3.1-35.2-4.9-69.9,8.3c-5.3,2.2-10.1-0.8-7.7-5
	C51.3,103.9,62.1,90.1,69.8,82.2z"/>
<path class="st0" d="M114.7,54.9c-6-0.7-6.1-5.1-3.5-6.8c6.5-4.6,17-10.1,27.7-14.3c3.2-1.3,4.8-1.6,7.7-1.3
	c7.8,0.8,20.8,6,35.6,16.6C200,61.8,215.9,86,205.3,84c-6.7-1.2-3.8-0.8-11.6-1.7c-8-0.7-13.3,0.1-17-0.3c-1.6-0.1-2.9-1.2-4-2.1
	C157.6,66.6,140.2,58,114.7,54.9z"/>
<path class="st0" d="M401,266c-1.6,5-3.5,11.3-7.6,8.4c-7.6-5.6-24.4-16.5-40.8-22.5c-0.9-0.2-0.8-1.4-0.5-2.1
	c1.2-2.6,1.7-4.9,2.2-8c0.5-2.8,2.5-4.7,3.9-7c4.2-6.7,6.5-18.3,7.4-25.6c0.7-6.7,0.3-14.1-1.2-20.3c-0.6-2.7-2.5-6.1-2.5-9
	s1.4-5.9,1.7-9.3c0.8-9.8-11.5-18-18.3-21.1c-15.3-7.1-31.6-13.5-48.1-22.3c-9.3-4.9-16.8-15.7-24.3-21.5
	c-7.6-5.8-31.9-15.5-41.6-18c-2.2-0.7-3-1.6-3.3-3.3c-4-19.1-15.3-40.2-36.3-56.4c-6.8-5.3,0.8-8.3,10.2-8.8
	C350,14.1,435.2,150.3,401,266z"/>
<path class="st0" d="M340.8,200.5c-0.1-0.8-0.4-3.3-0.4-3.8c0-1.3,2.8-3.2,4.1-4.2c2-1.6,4.2-3.3,5.7-4c0.5-0.3,0.9,0.4,1,0.6
	c5.5,8.3,3.4,28.8-0.5,38.5c-0.5,1-1.3,1.4-1.6,0.7c-2-4.4-5-8.3-8.4-10.5c-0.6-0.5-0.7-1.5-0.6-1.7
	C341,211.3,341.6,206.2,340.8,200.5z"/>
<path class="st0" d="M273.3,250.9c1.2-3.4,2.5-5.4,5.2-7c5-3.1,13.2-3.2,21.2-3.8c7.7-0.5,16-1,21.5-3.5c3.3-1.5,6.6-5.9,11.8-3.7
	c2.4,1,3.8,3.3,4.5,5.5c0.8,2.5,1.4,5,1.2,8.3c-0.7,9.6-8.5,14.2-9.9,23.1c-0.1,1.4-0.4,3.4-1.2,4.2c-5.9,6-17.6,4.8-28.2,3.7
	c-3.8-0.4-7.5-0.5-10.1-1.7c-1.9-0.9-3.5-2.6-5-4.1c-3.4-3.1-5.3-5.5-8.7-9.3c-1.2-1.3-3.8-3.6-3.9-5
	C271.4,256.2,272.8,252.3,273.3,250.9z"/>
<path class="st0" d="M87.9,363.5c-3.9-3.2-5.6-5.9-7.8-9.6c-18.1-29-28.3-131.6-4.9-166.5c7.4-12.2,15.3-6.6,12.7,2.9
	c-4.5,21.2-1.7,33,8.6,56c16.2,34.1,66.1,81.5,79.3,98.7c22.7,29.5,30.2,51,30.1,56.7c-0.1,4.4-1,7.3-8.8,6.6
	C156,405.1,116.4,388.1,87.9,363.5z"/>
<path class="st0" d="M111.3,225.1c-12.5-30.5-4.3-57.9,1.2-68.4c2.8-5.3,5.5-8.7,9.1-7.7c3.9,1.1,4.8,5,5.3,12.4
	c3.9,60.9,40.8,81.5,87.1,103c36.5,18.7,78.1,40,112.9,91.7c5.3,7.5,6,12,0.1,16.3c-21.2,14.5-40.5,24.6-68.6,31.2
	c-4.2,1-8.6,0.2-12.4-9.4C206.9,293.4,141.2,297.9,111.3,225.1z"/>
<path class="st0" d="M353.5,348.9c-6,6-9.3,1.3-11.3-2.5c-8.3-17.7-16.5-32.6-29.6-46.9c-2.3-2.3-0.5-5.5,2.8-5.2
	c4.3,0.3,7.1,0.1,11.8-1.9c4-1.7,8.5-7.3,10.8-15.3c1.7-5.8,1.7-7.6,5.3-7.9c0.9-0.1,2.5,0.1,3.5,0.4c4.4,1.2,9,4.8,12.5,7.4
	c8.8,6.7,21.9,21.5,24.1,26.3c1.5,3,0.1,5.1-0.8,6.9C378.1,319.5,363.6,338.9,353.5,348.9z"/>
<path d="M212.4,0C95.4,0,0,95.2,0,213.5c0,118.4,96,213.6,212.6,213.6c118.4,0,214.1-95.2,214.1-213.5C426.7,95.2,330.8,0,212.4,0z
	 M87.9,363.4c-3.9-3.2-5.6-5.9-7.8-9.6c-18.1-29-28.3-131.6-4.9-166.5c7.4-12.2,15.3-6.6,12.7,2.9c-4.5,21.2-1.7,33,8.6,56
	c16.2,34.1,66.1,81.5,79.3,98.7c22.7,29.5,30.2,51,30.1,56.7c-0.1,4.4-1,7.3-8.8,6.6C156,405,116.4,388,87.9,363.4z M401,266
	c-1.6,5-3.5,11.3-7.6,8.4c-7.6-5.6-24.4-16.5-40.8-22.5c-0.9-0.2-0.8-1.4-0.5-2.1c1.2-2.6,1.7-4.9,2.2-8c0.5-2.8,2.5-4.7,3.9-7
	c4.2-6.7,6.5-18.3,7.4-25.6c0.7-6.7,0.3-14.1-1.2-20.3c-0.6-2.7-2.5-6.1-2.5-9s1.4-5.9,1.7-9.3c0.8-9.8-11.5-18-18.3-21.1
	c-15.3-7.1-31.6-13.5-48.1-22.3c-9.3-4.9-16.8-15.7-24.3-21.5c-7.6-5.8-31.9-15.5-41.6-18c-2.2-0.7-3-1.6-3.3-3.3
	c-4-19.1-15.3-40.2-36.3-56.4c-6.8-5.3,0.8-8.3,10.2-8.8C350,14,435.2,150.3,401,266z M340.8,200.5c-0.1-0.8-0.4-3.3-0.4-3.8
	c0-1.3,2.8-3.2,4.1-4.2c2-1.6,4.2-3.3,5.7-4c0.5-0.3,0.9,0.4,1,0.6c5.5,8.3,3.4,28.8-0.5,38.5c-0.5,1-1.3,1.4-1.6,0.7
	c-2-4.4-5-8.3-8.4-10.5c-0.6-0.5-0.7-1.5-0.6-1.7C341,211.3,341.6,206.2,340.8,200.5z M162,109.3c7.1-5.6,27.4-13.4,51.7-7.4
	c6.9,1.7,24.8,7.6,36.7,13.4c11.7,5.4,20,15.3,30.9,21.3c13.7,7.6,32.6,11.2,47.1,18.3c2.9,1.4,10.6,6.6,8.5,7.7
	c-7.3,3.2-20,1.4-27.7-0.4c-3.8-0.9-8.6-1.9-10.5,1.6c-2.1,3.7-0.6,9.4,1,12.8c1.9,4.1,4.5,7.1,8,8.7c4.7,2.2,11.2,2.3,15.5,4.8
	c8.1,4.6,8.4,19.8,3.1,27.3c-4.4,6.3-17.6,7.5-29.8,6.9c-11.8-0.6-25.5-1.8-34.2,1.8c-8.6,3.6-12.7,9.6-17.8,17.1
	c-0.7,0.9-1.8,1.1-2.9,0.4c-30.3-18.2-68.6-27.6-89-56.5c-5-7.1-8.2-15.8-9.9-26.1C138.5,136.7,148.8,119.7,162,109.3z M114.7,54.9
	c-6-0.7-6.1-5.1-3.5-6.8c6.5-4.6,17-10.1,27.7-14.3c3.2-1.3,4.8-1.6,7.7-1.3c7.8,0.8,20.8,6,35.6,16.6C200,61.8,215.9,86,205.3,84
	c-6.7-1.2-3.8-0.8-11.6-1.7c-8-0.7-13.3,0.1-17-0.3c-1.6-0.1-2.9-1.2-4-2.1C157.6,66.5,140.2,58,114.7,54.9z M273.3,250.9
	c1.2-3.4,2.5-5.4,5.2-7c5-3.1,13.2-3.2,21.2-3.8c7.7-0.5,16-1,21.5-3.5c3.3-1.5,6.6-5.9,11.8-3.7c2.4,1,3.8,3.3,4.5,5.5
	c0.8,2.5,1.4,5,1.2,8.3c-0.7,9.6-8.5,14.2-9.9,23.1c-0.1,1.4-0.4,3.4-1.2,4.2c-5.9,6-17.6,4.8-28.2,3.7c-3.8-0.4-7.5-0.5-10.1-1.7
	c-1.9-0.9-3.5-2.6-5-4.1c-3.4-3.1-5.3-5.5-8.7-9.3c-1.2-1.3-3.8-3.6-3.9-5C271.4,256.2,272.8,252.3,273.3,250.9z M69.8,82.2
	c1.5-1.5,2.4-2.3,4.6-2.9c27.3-6.8,54.7-2.5,74.5,6.3c4.4,2,6.4,4.7,3.5,6.6c-3.7,2.2-14.9,9.4-21.1,15.2c-1.8,1.6-5,1.6-6.9,1.4
	c-23.1-3.1-35.2-4.9-69.9,8.3c-5.3,2.2-10.1-0.8-7.7-5C51.3,103.9,62.1,90,69.8,82.2z M21.7,175.3c0.4-2.5,0.6-3.2,2.1-5.1
	c2.4-3.5,31-35.6,75.3-43.4c5.8-0.8,10-0.4,11,1.9c1.7,4.1-1.7,6.5-5.8,8.8C33.2,180,38.2,243.2,37.5,269.1
	c0.2,10.6-7.4,12.5-9.3,7.5C19.9,253.9,12.8,218.2,21.7,175.3z M111.3,225c-12.5-30.5-4.3-57.9,1.2-68.3c2.8-5.3,5.5-8.7,9.1-7.7
	c3.9,1.1,4.8,5,5.3,12.4c3.9,60.9,40.8,81.5,87.1,103c36.5,18.7,78.1,40,112.9,91.7c5.3,7.5,6,12,0.1,16.3
	c-21.2,14.5-40.5,24.6-68.6,31.2c-4.2,1-8.6,0.2-12.4-9.4C206.9,293.3,141.3,297.9,111.3,225z M353.5,348.9c-6,5.9-9.3,1.3-11.3-2.5
	c-8.3-17.7-16.5-32.6-29.6-46.9c-2.3-2.3-0.5-5.5,2.8-5.2c4.3,0.3,7.1,0.1,11.8-1.9c4-1.7,8.5-7.3,10.8-15.3
	c1.7-5.8,1.7-7.6,5.3-7.9c0.9-0.1,2.5,0.1,3.5,0.4c4.4,1.2,9,4.8,12.5,7.4c8.8,6.7,21.9,21.5,24.1,26.3c1.5,3,0.1,5.1-0.8,6.9
	C378.1,319.5,363.6,338.9,353.5,348.9z"/>
<path d="M222.7,151.2c5.3,1.7,11,3.2,15,5.5c2.4,1.3,4.8,4.9,8.1,4.5c3.3-0.4,5.4-7,6-10.4c0.9-4.9,0.4-11.2-1.3-14.3
	c-2.8-5.2-10.8-6.4-19.1-6c-5.7,0.3-8.8,0.8-13.2,2.1c-4.6,1.4-11,4.5-8.3,10.9C211.9,147.8,218.1,149.7,222.7,151.2z"/>
</svg>
