<?xml version="1.0" encoding="utf-8"?>
<!-- Generator: Adobe Illustrator 20.0.0, SVG Export Plug-In . SVG Version: 6.00 Build 0)  -->
<svg version="1.1" id="Layer_1" xmlns="http://www.w3.org/2000/svg" xmlns:xlink="http://www.w3.org/1999/xlink" x="0px" y="0px"
	 viewBox="0 0 725.2 425.5" style="enable-background:new 0 0 725.2 425.5;" xml:space="preserve">
<style type="text/css">
	.st0{fill:#FFFFFF;}
</style>
<g>
	<g>
		<g>
			<path class="st0" d="M250,221.7c-11.7-5.7-26.8-8.6-37.9-14.7c-8.7-4.8-15.4-12.8-24.8-17.2c-9.6-4.7-24-9.4-29.5-10.8
				c-19.5-4.8-35.9,1.4-41.6,5.9c-10.6,8.4-18.9,22-15.7,41.6c1.4,8.3,3.9,15.3,8,21c16.4,23.2,47.2,30.8,71.6,45.4
				c0.9,0.6,1.8,0.4,2.3-0.3c4.1-6,7.4-10.9,14.3-13.7c7-2.9,18-1.9,27.5-1.5c9.8,0.5,20.4-0.4,24-5.5c4.3-6.1,4-18.3-2.5-22
				c-3.5-2-8.7-2.1-12.5-3.8c-2.8-1.3-4.9-3.7-6.4-7c-1.3-2.8-2.5-7.3-0.8-10.3c1.5-2.7,5.4-2,8.5-1.3c6.1,1.4,16.4,2.9,22.3,0.3
				C258.5,227,252.3,222.9,250,221.7z M188.4,218.4c-0.5,2.7-2.2,8-4.9,8.4c-2.7,0.3-4.6-2.5-6.5-3.6c-3.2-1.8-7.8-3-12.1-4.4
				c-3.7-1.2-8.7-2.7-10.1-6.2c-2.2-5.2,2.9-7.7,6.7-8.8c3.5-1.1,6.1-1.5,10.6-1.7c6.7-0.3,13.1,0.6,15.3,4.9
				C188.8,209.4,189.2,214.4,188.4,218.4z"/>
		</g>
	</g>
	<path class="st0" d="M3.3,238.1c0.4-2,0.5-2.5,1.7-4.1c1.9-2.8,24.9-28.7,60.6-34.9c4.7-0.7,8.1-0.3,8.8,1.5
		c1.3,3.3-1.4,5.2-4.7,7.1c-57.2,34.2-53.2,85-53.7,105.8c0.2,8.5-6,10.1-7.5,6C1.8,301.3-3.8,272.6,3.3,238.1z"/>
	<path class="st0" d="M42,163.2c1.2-1.2,1.9-1.8,3.7-2.3c22-5.5,44-2,59.9,5.1c3.6,1.6,5.2,3.8,2.8,5.3c-3,1.7-12,7.6-17,12.2
		c-1.4,1.2-4,1.3-5.6,1.1c-18.6-2.5-28.3-3.9-56.3,6.7c-4.3,1.8-8.2-0.7-6.2-4C27.2,180.7,35.8,169.5,42,163.2z"/>
	<path class="st0" d="M78.2,141.3c-4.8-0.5-4.9-4.1-2.8-5.4c5.2-3.7,13.7-8.1,22.2-11.5c2.6-1,3.9-1.3,6.2-1
		c6.3,0.6,16.7,4.9,28.6,13.4c14.3,10.2,27.1,29.6,18.6,28.1c-5.4-0.9-3-0.7-9.4-1.4c-6.5-0.6-10.7,0.1-13.7-0.2
		c-1.3-0.1-2.3-1-3.2-1.7C112.6,150.6,98.7,143.8,78.2,141.3z"/>
	<path class="st0" d="M308.4,311c-1.3,4-2.8,9.1-6.1,6.7c-6.1-4.5-19.7-13.3-32.8-18.1c-0.7-0.2-0.6-1.1-0.4-1.7
		c0.9-2.1,1.3-4,1.8-6.4c0.4-2.3,2-3.8,3.2-5.6c3.4-5.4,5.2-14.7,5.9-20.6c0.6-5.4,0.2-11.4-0.9-16.3c-0.5-2.1-2-4.9-2-7.2
		c0-2.3,1.1-4.7,1.3-7.4c0.7-7.9-9.3-14.4-14.7-17c-12.3-5.7-25.4-10.9-38.7-17.9c-7.5-4-13.5-12.6-19.5-17.3
		c-6.1-4.7-25.6-12.4-33.4-14.5c-1.8-0.6-2.4-1.3-2.7-2.7c-3.2-15.4-12.3-32.3-29.2-45.4c-5.5-4.3,0.7-6.7,8.2-7.1
		C267.4,108.4,335.9,218,308.4,311z"/>
	<path class="st0" d="M260,258.4c-0.1-0.6-0.3-2.7-0.3-3.1c0-1.1,2.2-2.6,3.3-3.4c1.6-1.3,3.4-2.6,4.6-3.2c0.4-0.3,0.7,0.4,0.8,0.5
		c4.4,6.7,2.7,23.1-0.4,31c-0.4,0.8-1,1.1-1.3,0.5c-1.6-3.5-4-6.7-6.8-8.5c-0.5-0.4-0.5-1.2-0.5-1.4
		C260.2,267.1,260.7,263,260,258.4z"/>
	<path class="st0" d="M205.7,298.9c0.9-2.7,2-4.3,4.2-5.7c4-2.5,10.6-2.6,17-3.1c6.2-0.4,12.8-0.8,17.3-2.8c2.7-1.2,5.3-4.7,9.5-2.9
		c2,0.8,3,2.6,3.6,4.4c0.7,2,1.1,4,0.9,6.7c-0.6,7.7-6.8,11.4-8,18.6c-0.1,1.1-0.3,2.7-0.9,3.4c-4.8,4.8-14.2,3.8-22.7,3
		c-3.1-0.3-6.1-0.4-8.1-1.4c-1.5-0.7-2.8-2.1-4.1-3.3c-2.7-2.5-4.3-4.4-7-7.4c-0.9-1-3-2.9-3.2-4.1
		C204.2,303.2,205.3,300.1,205.7,298.9z"/>
	<path class="st0" d="M56.6,389.5c-3.1-2.6-4.5-4.7-6.3-7.8c-14.6-23.3-22.8-105.9-4-133.9c6-9.8,12.3-5.3,10.2,2.3
		c-3.6,17-1.4,26.6,6.9,45c13,27.5,53.2,65.6,63.8,79.4c18.2,23.7,24.3,41,24.2,45.6c-0.1,3.6-0.8,5.8-7,5.3
		C111.4,422.9,79.5,409.2,56.6,389.5z"/>
	<path class="st0" d="M75.4,278.1c-10.1-24.5-3.5-46.6,1-55c2.2-4.2,4.4-7,7.3-6.2c3.1,0.9,3.8,4.1,4.3,10
		c3.2,49,32.8,65.5,70.1,82.8c29.4,15,62.8,32.2,90.8,73.8c4.2,6,4.9,9.6,0.1,13.1c-17.1,11.7-32.6,19.8-55.2,25.1
		c-3.4,0.8-6.9,0.2-9.9-7.6C152.3,333,99.5,336.7,75.4,278.1z"/>
	<path class="st0" d="M270.2,377.7c-4.8,4.8-7.5,1-9.1-2c-6.7-14.3-13.3-26.2-23.8-37.8c-1.8-1.9-0.4-4.5,2.3-4.2
		c3.4,0.3,5.7,0.1,9.5-1.5c3.2-1.4,6.9-5.9,8.7-12.3c1.3-4.7,1.4-6.1,4.3-6.4c0.7-0.1,2,0.1,2.8,0.3c3.5,1,7.3,3.9,10,6
		c7.1,5.4,17.6,17.3,19.4,21.1c1.2,2.5,0.1,4.1-0.6,5.5C290,354,278.4,369.7,270.2,377.7z"/>
	<g>
		<path class="st0" d="M357.5,5.6h5.5l40.7,58.9V5.6h5.3v68.2h-5.2l-41-59.3v59.3h-5.2L357.5,5.6L357.5,5.6z"/>
		<path class="st0" d="M419.8,48.9c0-13.8,8-25.1,21-25.1c12.5,0,19.4,10,18.3,24h-33.7c0,0.3,0,0.8,0,1.1
			c0.1,11.2,4.8,21.4,16.5,21.4c6.2,0,11.5-2.5,14.1-4.6l2.3,4.2c-3.1,2.2-8.7,5-16.6,5C426.8,74.9,419.8,62.9,419.8,48.9z
			 M453.9,43.4c-0.1-7.4-3.9-14.9-13.2-14.9c-8.5,0-13.4,6.5-14.9,14.9H453.9z"/>
		<path class="st0" d="M465.4,24.9h5.7L483,65.6l12.8-40.7h5.3l12.8,40.8l12-40.8h5.3l-14.8,48.9h-4.9l-13.2-41.2l-13.2,41.2h-4.9
			L465.4,24.9z"/>
		<path class="st0" d="M578.9,48.1L556,5.6h6.4l19.4,36.9h0.2l19.4-36.9h5.7l-22.7,42.5v25.7h-5.5V48.1z"/>
		<path class="st0" d="M602.4,49.4c0-12.3,6.6-25.6,21.9-25.6c15.4,0,22.5,13.2,22.5,25.4c0,12.3-7,25.7-22.4,25.7
			C609.1,74.9,602.4,61.7,602.4,49.4z M641.2,49.4c0-11-5.8-21-17-21c-11.1,0-16.1,9.8-16.1,20.8c0,11.1,5.4,21.1,16.5,21.1
			C635.8,70.3,641.2,60.5,641.2,49.4z"/>
		<path class="st0" d="M657,24.9h5.4v8.5c1.8-3.6,6.2-9.7,13.1-9.7c2.3,0,3.9,0.5,4.7,0.8l-1.3,5c-0.8-0.3-2-0.7-4-0.7
			c-6.8,0-11.2,8-12.5,10.8v34H657V24.9z"/>
		<path class="st0" d="M690.1,0h5.3v73.8h-5.3V0z M695.9,46.3l21.5-21.4h6.6l-21.6,21.4l22.8,27.5h-6.7L695.9,46.3z"/>
	</g>
	<g>
		<path class="st0" d="M357.6,108.4h14.9c14.3,0,23.4,7.1,23.4,19.3c0,12.3-8.5,20-24,20h-8.6v29h-5.6L357.6,108.4L357.6,108.4z
			 M371.8,142.8c13,0,18.3-5.9,18.3-15c0-8.5-5.1-14.7-18.1-14.7h-8.7v29.6L371.8,142.8L371.8,142.8z"/>
		<path class="st0" d="M404.4,162.3v-34.6h5.3v33.4c0,7.2,2.6,11.8,10,11.8c7.3,0,13.3-6.9,15-9.7v-35.5h5.3v39.5
			c0,3.9,0.4,7.6,0.9,9.4h-5.4c-0.3-1.7-0.7-5.3-0.7-8c-2.3,3.7-7.9,9.1-16.2,9.1C408.4,177.8,404.4,171.1,404.4,162.3z"/>
		<path class="st0" d="M453.4,174.1v-71.2h5.3v29.4c3-3.4,7.8-5.6,12.8-5.6c14,0,20.7,11.2,20.7,25.4c0,13.8-9.2,25.8-24.2,25.8
			C462.2,177.8,456.8,176.3,453.4,174.1z M486.6,152.2c0-10.7-4.1-20.8-16-20.8c-4.2,0-9.1,2.4-11.9,5.5v34.3
			c2.3,1.1,5.6,1.9,9.5,1.9C480.7,173.1,486.6,162.3,486.6,152.2z"/>
		<path class="st0" d="M504.2,102.8h5.4v73.8h-5.4V102.8z"/>
		<path class="st0" d="M524.1,113.3c0-2.4,1.9-4.1,4-4.1c2.3,0,4.1,1.7,4.1,4.1c0,2.4-1.9,4.2-4.1,4.2
			C525.9,117.5,524.1,115.7,524.1,113.3z M525.4,127.7h5.4v48.9h-5.4V127.7z"/>
		<path class="st0" d="M541.1,152.1c0-15.5,8.9-25.5,21.5-25.5c7.3,0,11.9,2.7,14.5,5.1l-2.8,3.9c-2.7-2.4-6.5-4.4-11.9-4.4
			c-10.9,0-15.8,9.4-15.8,20.7c0,10.8,4.9,21.2,15.7,21.2c5.6,0,10.4-2.4,12.5-4.3l2.3,4c-2.6,2.3-7.8,5-15.2,5
			C548.1,177.8,541.1,165.2,541.1,152.1z"/>
	</g>
	<g>
		<path class="st0" d="M357.5,279.6v-68.2h14.6v56.5h25.4v11.7H357.5z"/>
	</g>
	<g>
		<path class="st0" d="M415.2,223.3c-4.8,0-8.3-3.8-8.3-8.2c0-4.3,3.5-8,8.3-8s8.4,3.7,8.4,8S420,223.3,415.2,223.3z M408.3,279.6
			v-49.9H422v49.9H408.3z"/>
		<path class="st0" d="M447.6,205.8v27.8c2.3-2.3,6.7-5.1,12.2-5.1c12.5,0,21.2,8.6,21.2,25.8c0,17-11.5,26.6-26.5,26.6
			c-11.3,0-18.1-2.9-20.5-4v-71.1L447.6,205.8L447.6,205.8z M447.6,269c0.9,0.3,3.1,1.1,6.9,1.1c7.6,0,12.1-5.6,12.1-15.9
			c0-9.3-3.2-15.1-10.5-15.1c-4.3,0-7.6,2.8-8.4,3.8V269H447.6z"/>
		<path class="st0" d="M519.4,241.7c-0.8-0.5-2.4-1.1-5.3-1.1c-6,0-9.6,5.3-10.9,7.5v31.5h-13.6v-49.9h13.6v6.8
			c2.2-3.7,6.3-8,12.6-8c3.7,0,5.7,0.7,6.8,1.4L519.4,241.7z"/>
		<path class="st0" d="M555.4,279.6c-0.4-1.3-0.7-3.8-0.8-5.3c-2.2,2.6-7,6.5-14,6.5c-8.5,0-15.1-5.1-15.1-14
			c0-13,13.4-17.8,26.6-17.8h1.8v-2.9c0-4.3-1.8-7-8.1-7c-6.5,0-10.9,3.4-12.7,4.7l-5.9-8.3c3-2.6,9.5-7.2,20.2-7.2
			c13.6,0,20.1,5.3,20.1,18.5v17.9c0,6.8,0.7,11.6,1.4,14.8L555.4,279.6L555.4,279.6z M553.9,257.5h-1.8c-7.9,0-13.5,2.3-13.5,8.2
			c0,3.7,3,5.2,6,5.2c4.9,0,7.8-2.9,9.2-4.4L553.9,257.5L553.9,257.5z"/>
		<path class="st0" d="M608.7,241.7c-0.8-0.5-2.4-1.1-5.3-1.1c-6,0-9.6,5.3-10.9,7.5v31.5h-13.6v-49.9h13.6v6.8
			c2.2-3.7,6.3-8,12.6-8c3.7,0,5.7,0.7,6.8,1.4L608.7,241.7z"/>
		<path class="st0" d="M616.6,229.7h14.5l11.1,32.9h0.5l10.2-32.9h14l-20.6,55.2c-4.4,11.8-9.6,18.6-23.2,18.6
			c-4.2,0-6.7-0.6-7.7-0.9l2-10.8c0.7,0.2,1.9,0.5,4.8,0.5c7,0,9.4-3.3,11.4-8.7l1.9-5.1L616.6,229.7z"/>
	</g>
</g>
</svg>
