<?xml version="1.0" encoding="UTF-8" standalone="no"?>
<svg width="300px" height="169px" viewBox="0 0 300 169" version="1.1" xmlns="http://www.w3.org/2000/svg" xmlns:xlink="http://www.w3.org/1999/xlink" xmlns:sketch="http://www.bohemiancoding.com/sketch/ns">
    <!-- Generator: Sketch 3.2.2 (9983) - http://www.bohemiancoding.com/sketch -->
    <title>Group</title>
    <desc>Created with Sketch.</desc>
    <defs/>
    <g id="Page-1" stroke="none" stroke-width="1" fill="none" fill-rule="evenodd" sketch:type="MSPage">
        <g id="Group" sketch:type="MSLayerGroup">
            <path d="M150.402893,2.34156127 L152.655785,2.34156127 L169.218182,26.3876103 L169.218182,2.34156127 L171.387603,2.34156127 L171.387603,30.1930098 L169.259504,30.1930098 L152.530165,5.97961765 L152.530165,30.1930098 L150.402893,30.1930098 L150.402893,2.34156127" id="Fill-1" fill="#1A1918" sketch:type="MSShapeGroup"/>
            <path d="M189.619421,17.7727525 C189.577686,14.7618186 188.034298,11.6672132 184.237603,11.6672132 C180.775207,11.6672132 178.772314,14.3434608 178.18843,17.7727525 L189.619421,17.7727525 L189.619421,17.7727525 Z M175.768182,20.0310564 C175.768182,14.3857108 179.022314,9.78543137 184.321074,9.78543137 C189.410744,9.78543137 192.206198,13.8836814 191.78843,19.5708627 L178.06281,19.5708627 L178.06281,20.0310564 C178.104959,24.5895 180.023967,28.7714216 184.780165,28.7714216 C187.324793,28.7714216 189.452479,27.7259412 190.53719,26.8892255 L191.454959,28.6040784 C190.203306,29.5240515 187.908678,30.6532034 184.696281,30.6532034 C178.605372,30.6532034 175.768182,25.7604877 175.768182,20.0310564 L175.768182,20.0310564 Z" id="Fill-2" fill="#1A1918" sketch:type="MSShapeGroup"/>
            <path d="M194.123554,10.2452108 L196.459917,10.2452108 L201.3,26.8478039 L206.514463,10.2452108 L208.642149,10.2452108 L213.857025,26.8892255 L218.738017,10.2452108 L220.907851,10.2452108 L214.9,30.1930098 L212.897521,30.1930098 L207.515702,13.381652 L202.133884,30.1930098 L200.131405,30.1930098 L194.123554,10.2452108" id="Fill-3" fill="#1A1918" sketch:type="MSShapeGroup"/>
            <path d="M240.096694,19.6963701 L230.793802,2.34156127 L233.380165,2.34156127 L241.264876,17.3962304 L241.348347,17.3962304 L249.233471,2.34156127 L251.569835,2.34156127 L242.349587,19.6963701 L242.349587,30.1930098 L240.096694,30.1930098 L240.096694,19.6963701" id="Fill-4" fill="#1A1918" sketch:type="MSShapeGroup"/>
            <path d="M265.461157,20.2402353 C265.461157,15.7654632 263.083058,11.6672132 258.53595,11.6672132 C254.030165,11.6672132 251.98595,15.6817917 251.98595,20.1565637 C251.98595,24.6731716 254.197107,28.7714216 258.702479,28.7714216 C263.249587,28.7714216 265.461157,24.7564289 265.461157,20.2402353 L265.461157,20.2402353 Z M249.691322,20.2402353 C249.691322,15.221598 252.361157,9.78543137 258.619008,9.78543137 C264.877273,9.78543137 267.755785,15.1801765 267.755785,20.1565637 C267.755785,25.1747868 264.919008,30.6532034 258.660744,30.6532034 C252.402893,30.6532034 249.691322,25.2584583 249.691322,20.2402353 L249.691322,20.2402353 Z" id="Fill-5" fill="#1A1918" sketch:type="MSShapeGroup"/>
            <path d="M271.922314,10.2452108 L274.092149,10.2452108 L274.092149,13.7163382 C274.842975,12.2525 276.636777,9.78543137 279.432231,9.78543137 C280.349587,9.78543137 281.017355,9.99461029 281.35124,10.1197034 L280.808678,12.1688284 C280.474793,12.0437353 280.016116,11.8763922 279.181405,11.8763922 C276.428099,11.8763922 274.633884,15.1383407 274.092149,16.3093284 L274.092149,30.1930098 L271.922314,30.1930098 L271.922314,10.2452108" id="Fill-6" fill="#1A1918" sketch:type="MSShapeGroup"/>
            <path d="M287.732645,18.985576 L296.452479,10.2452108 L299.164463,10.2452108 L290.36157,18.985576 L299.62314,30.1930098 L296.911157,30.1930098 L287.732645,18.985576 L287.732645,18.985576 Z M285.355372,0.0832573529 L287.524793,0.0832573529 L287.524793,30.1930098 L285.355372,30.1930098 L285.355372,0.0832573529 Z" id="Fill-7" fill="#1A1918" sketch:type="MSShapeGroup"/>
            <path d="M156.202066,58.2963015 C161.5,58.2963015 163.669421,55.8706544 163.669421,52.190348 C163.669421,48.7192206 161.583471,46.2103162 156.285124,46.2103162 L152.739256,46.2103162 L152.739256,58.2963015 L156.202066,58.2963015 L156.202066,58.2963015 Z M150.444628,44.2448627 L156.493802,44.2448627 C162.334711,44.2448627 166.005785,47.1307034 166.005785,52.1070907 C166.005785,57.1248995 162.542975,60.2617549 156.243388,60.2617549 L152.739256,60.2617549 L152.739256,72.0963113 L150.444628,72.0963113 L150.444628,44.2448627 L150.444628,44.2448627 Z" id="Fill-8" fill="#1A1918" sketch:type="MSShapeGroup"/>
            <path d="M169.509091,66.2417868 L169.509091,52.1485123 L171.678926,52.1485123 L171.678926,65.7815931 C171.678926,68.7092696 172.721488,70.5910515 175.766942,70.5910515 C178.729339,70.5910515 181.190083,67.7892966 181.858264,66.6183088 L181.858264,52.1485123 L184.027273,52.1485123 L184.027273,68.249076 C184.027273,69.8380074 184.194215,71.3436814 184.402893,72.0963113 L182.191736,72.0963113 C182.066942,71.4273529 181.899587,69.9216789 181.899587,68.8343627 C180.940083,70.3400368 178.68719,72.5565049 175.308264,72.5565049 C171.136364,72.5565049 169.509091,69.8380074 169.509091,66.2417868" id="Fill-9" fill="#1A1918" sketch:type="MSShapeGroup"/>
            <path d="M202.967769,62.1435368 C202.967769,57.7942721 201.29876,53.6541863 196.459504,53.6541863 C194.749174,53.6541863 192.746281,54.6578309 191.619835,55.9124902 L191.619835,69.8802574 C192.537603,70.3400368 193.91405,70.674723 195.5,70.674723 C200.547521,70.674723 202.967769,66.2836225 202.967769,62.1435368 L202.967769,62.1435368 Z M189.450826,71.0512451 L189.450826,41.9865588 L191.619835,41.9865588 L191.619835,53.9888725 C192.829752,52.6087059 194.790909,51.6887328 196.835124,51.6887328 C202.508264,51.6887328 205.261983,56.2467623 205.261983,62.0598652 C205.261983,67.6637892 201.507025,72.5565049 195.416116,72.5565049 C193.03843,72.5565049 190.827273,71.9712181 189.450826,71.0512451 L189.450826,71.0512451 Z" id="Fill-10" fill="#1A1918" sketch:type="MSShapeGroup"/>
            <path d="M209.724793,41.9865588 L211.894628,41.9865588 L211.894628,72.0963113 L209.724793,72.0963113 L209.724793,41.9865588 Z" id="Fill-11" fill="#1A1918" sketch:type="MSShapeGroup"/>
            <path d="M218.360331,52.1485123 L220.571074,52.1485123 L220.571074,72.0963113 L218.360331,72.0963113 L218.360331,52.1485123 Z M217.817769,46.252152 C217.817769,45.2903431 218.569008,44.5791348 219.445455,44.5791348 C220.362397,44.5791348 221.113636,45.2903431 221.113636,46.252152 C221.113636,47.2139608 220.362397,47.9670049 219.445455,47.9670049 C218.569008,47.9670049 217.817769,47.2139608 217.817769,46.252152 L217.817769,46.252152 Z" id="Fill-12" fill="#1A1918" sketch:type="MSShapeGroup"/>
            <path d="M224.742562,62.101701 C224.742562,55.7869828 228.372314,51.6887328 233.503719,51.6887328 C236.466116,51.6887328 238.343388,52.8178848 239.427686,53.7796936 L238.30124,55.368625 C237.175207,54.4068162 235.67314,53.5705147 233.462397,53.5705147 C229.039669,53.5705147 227.03719,57.41775 227.03719,62.0180294 C227.03719,66.4509657 228.998347,70.674723 233.420661,70.674723 C235.715289,70.674723 237.633884,69.6710784 238.510331,68.8766127 L239.469835,70.5073799 C238.385124,71.4691887 236.299174,72.5565049 233.295041,72.5565049 C227.579752,72.5565049 224.742562,67.4546103 224.742562,62.101701" id="Fill-13" fill="#1A1918" sketch:type="MSShapeGroup"/>
            <path d="M149.818595,114.000441 L149.818595,86.1485784 L155.742562,86.1485784 L155.742562,109.232404 L166.089256,109.232404 L166.089256,114.000441 L149.818595,114.000441" id="Fill-14" fill="#1A1918" sketch:type="MSShapeGroup"/>
            <path d="M170.48719,93.6334559 L176.077273,93.6334559 L176.077273,114.000441 L170.48719,114.000441 L170.48719,93.6334559 Z M173.282645,90.9998725 C171.321488,90.9998725 169.902893,89.4523627 169.902893,87.6538382 C169.902893,85.8975637 171.321488,84.3918897 173.282645,84.3918897 C175.243388,84.3918897 176.703306,85.8975637 176.703306,87.6538382 C176.703306,89.4523627 175.243388,90.9998725 173.282645,90.9998725 L173.282645,90.9998725 Z" id="Fill-15" fill="#1A1918" sketch:type="MSShapeGroup"/>
            <path d="M186.507025,109.692598 C186.882231,109.818105 187.758264,110.153206 189.302066,110.153206 C192.389256,110.153206 194.22438,107.853066 194.22438,103.671145 C194.22438,99.8653309 192.931818,97.5237696 189.927686,97.5237696 C188.176033,97.5237696 186.840496,98.6525074 186.507025,99.0708652 L186.507025,109.692598 L186.507025,109.692598 Z M186.507025,83.8902745 L186.507025,95.2236299 C187.424793,94.3028284 189.218595,93.1322549 191.471074,93.1322549 C196.56157,93.1322549 200.107438,96.6448039 200.107438,103.671145 C200.107438,110.612571 195.434711,114.502056 189.302066,114.502056 C184.71281,114.502056 181.917769,113.331069 180.958264,112.870875 L180.958264,83.8902745 L186.507025,83.8902745 L186.507025,83.8902745 Z" id="Fill-16" fill="#1A1918" sketch:type="MSShapeGroup"/>
            <path d="M215.709504,98.527 C215.37562,98.3182353 214.749587,98.0668064 213.580992,98.0668064 C211.120248,98.0668064 209.659917,100.241853 209.159091,101.161412 L209.159091,114.000441 L203.610331,114.000441 L203.610331,93.6334559 L209.159091,93.6334559 L209.159091,96.3942034 C210.035124,94.8885294 211.704132,93.1322549 214.290496,93.1322549 C215.792562,93.1322549 216.585124,93.4251054 217.044215,93.6765343 L215.709504,98.527" id="Fill-17" fill="#1A1918" sketch:type="MSShapeGroup"/>
            <path d="M229.768182,104.966811 L229.058678,104.966811 C225.804959,104.966811 223.552066,105.929449 223.552066,108.312846 C223.552066,109.818105 224.762397,110.445228 226.013223,110.445228 C228.016116,110.445228 229.184298,109.27424 229.768182,108.647532 L229.768182,104.966811 L229.768182,104.966811 Z M230.394215,114.000441 C230.22686,113.497998 230.102479,112.453346 230.059917,111.825395 C229.142562,112.912711 227.22314,114.502056 224.344628,114.502056 C220.881818,114.502056 218.211983,112.41151 218.211983,108.772625 C218.211983,103.461551 223.677273,101.537934 229.058678,101.537934 L229.768182,101.537934 L229.768182,100.366946 C229.768182,98.6102574 229.058678,97.5237696 226.472314,97.5237696 C223.844215,97.5237696 222.05,98.9031078 221.299174,99.446973 L218.879339,96.0599314 C220.089256,94.9726152 222.759504,93.1322549 227.098347,93.1322549 C232.647107,93.1322549 235.275207,95.2654657 235.275207,100.659797 L235.275207,107.978159 C235.275207,110.738078 235.566942,112.703118 235.859091,114.000441 L230.394215,114.000441 L230.394215,114.000441 Z" id="Fill-18" fill="#1A1918" sketch:type="MSShapeGroup"/>
            <path d="M251.836777,98.527 C251.503306,98.3182353 250.877273,98.0668064 249.709504,98.0668064 C247.247934,98.0668064 245.787603,100.241853 245.286777,101.161412 L245.286777,114.000441 L239.738017,114.000441 L239.738017,93.6334559 L245.286777,93.6334559 L245.286777,96.3942034 C246.163223,94.8885294 247.831818,93.1322549 250.418595,93.1322549 C251.919835,93.1322549 252.71281,93.4251054 253.171901,93.6765343 L251.836777,98.527" id="Fill-19" fill="#1A1918" sketch:type="MSShapeGroup"/>
            <path d="M255.173967,93.6334559 L261.097521,93.6334559 L265.603719,107.058186 L265.812397,107.058186 L269.942562,93.6334559 L275.658264,93.6334559 L267.272727,116.174245 C265.478512,120.983703 263.350826,123.785458 257.802479,123.785458 C256.091736,123.785458 255.090496,123.535272 254.673554,123.40935 L255.466116,119.01825 C255.757851,119.101922 256.216942,119.227015 257.42686,119.227015 C260.263636,119.227015 261.264876,117.847676 262.057438,115.67263 L262.808264,113.582083 L255.173967,93.6334559" id="Fill-20" fill="#1A1918" sketch:type="MSShapeGroup"/>
            <path d="M75.6433884,85.7948382 C75.4475207,86.8175368 74.8256198,88.7925172 73.8309917,88.920924 C72.8289256,89.0493309 72.1070248,87.9723701 71.3884298,87.568924 C70.1760331,86.8908529 68.4615702,86.4472279 66.8772727,85.9215882 C65.5103306,85.4676078 63.6363636,84.9055172 63.0867769,83.5982525 C62.2632231,81.6518529 64.1871901,80.7310515 65.572314,80.3035809 C66.8772727,79.9017917 67.8322314,79.7506029 69.5334711,79.6710735 C72.0359504,79.5505368 74.4252066,79.9096618 75.2652893,81.4865809 C75.7719008,82.4363775 75.9264463,84.3206446 75.6433884,85.7948382 L75.6433884,85.7948382 Z M98.614876,87.0494975 C94.2561983,84.9113162 88.5954545,83.8401544 84.4764463,81.5466422 C81.2152893,79.7340343 78.714876,76.7400833 75.2053719,75.1267132 C71.6252066,73.3696103 66.2363636,71.6033946 64.1764463,71.0943235 C56.8946281,69.2986985 50.7780992,71.6369461 48.6566116,73.3199044 C44.6954545,76.4575882 41.6008264,81.557826 42.8082645,88.8952426 C43.3198347,91.9968897 44.272314,94.6060343 45.7859504,96.7516716 C51.9280992,105.447716 63.4239669,108.272667 72.5309917,113.758539 C72.8520661,113.977659 73.1871901,113.919255 73.3921488,113.639659 C74.9219008,111.384669 76.1652893,109.569576 78.7417355,108.495515 C81.357438,107.400743 85.4739669,107.772708 89.0231405,107.94585 C92.6896694,108.123549 96.6475207,107.778507 97.9772727,105.878086 C99.5661157,103.609841 99.4735537,99.0393848 97.0483471,97.6430637 C95.7471074,96.8912623 93.8070248,96.8568824 92.3917355,96.2028358 C91.3590909,95.7244167 90.5628099,94.8292966 89.9933884,93.5845784 C89.5157025,92.5432402 89.0719008,90.8333578 89.6909091,89.717875 C90.2607438,88.6902059 91.6975207,88.9809853 92.8516529,89.2498113 C95.138843,89.7762794 98.9607438,90.3342279 101.161157,89.3666201 C101.809504,89.0348333 99.4917355,87.4790392 98.614876,87.0494975 L98.614876,87.0494975 Z" id="Fill-21" fill="#FFFFFF" sketch:type="MSShapeGroup"/>
            <path d="M6.50165289,93.1894167 C6.63305785,92.4450711 6.69049587,92.2379632 7.13760331,91.6526765 C7.84628099,90.5906275 16.4429752,80.9211765 29.7673554,78.5779583 C31.5206612,78.3261152 32.7842975,78.4478946 33.0714876,79.1524755 C33.5752066,80.3876667 32.5549587,81.0992892 31.3268595,81.8117402 C9.95702479,94.6143186 11.4719008,113.646701 11.2673554,121.432299 C11.331405,124.617203 9.03719008,125.196691 8.46404959,123.696402 C5.95661157,116.838647 3.84752066,106.08975 6.50165289,93.1894167" id="Fill-22" fill="#FFFFFF" sketch:type="MSShapeGroup"/>
            <path d="M20.9619835,65.1511569 C21.3995868,64.6855784 21.685124,64.4718431 22.3347107,64.2883456 C30.5421488,62.2446054 38.7752066,63.5456569 44.7041322,66.1958088 C46.035124,66.7864804 46.6347107,67.6236103 45.7607438,68.185701 C44.6491736,68.8331201 41.2805785,71.0292917 39.418595,72.7685833 C38.8772727,73.2362328 37.9123967,73.2606716 37.3429752,73.1848701 C30.392562,72.2665539 26.7826446,71.7239314 16.3338843,75.6941887 C14.7305785,76.3697745 13.288843,75.4506299 14.0264463,74.1872721 C15.4177686,71.6895515 18.6528926,67.5109436 20.9619835,65.1511569" id="Fill-23" fill="#FFFFFF" sketch:type="MSShapeGroup"/>
            <path d="M34.4665289,56.9314608 C32.6694215,56.726424 32.6442149,55.4088039 33.403719,54.8955907 C35.3561983,53.5245368 38.5243802,51.8689167 41.711157,50.6022451 C42.6652893,50.2232377 43.1578512,50.1246544 44.0318182,50.2124681 C46.3801653,50.4481569 50.2690083,52.0329461 54.7309917,55.2244779 C60.0822314,59.0518309 64.842562,66.322973 61.6590909,65.7343725 C59.6454545,65.3847745 60.522314,65.4808725 58.1619835,65.2211593 C55.7504132,65.0070098 54.1677686,65.255125 53.0561983,65.1416299 C52.5719008,65.1018652 52.1904959,64.778777 51.8495868,64.4987672 C47.3330579,60.4390392 42.1157025,57.8626176 34.4665289,56.9314608" id="Fill-24" fill="#FFFFFF" sketch:type="MSShapeGroup"/>
            <path d="M120.442149,120.483745 C119.960331,121.991076 119.388017,123.881971 118.16157,123.004662 C115.883058,121.305135 110.818595,118.037801 105.91405,116.224365 C105.650826,116.165547 105.680579,115.798966 105.773554,115.592272 C106.121074,114.820174 106.27686,114.106066 106.427273,113.192306 C106.566942,112.337365 107.182231,111.766162 107.605372,111.080635 C108.862397,109.067961 109.543388,105.559554 109.817769,103.370838 C110.026033,101.359821 109.902066,99.1189142 109.467355,97.2512157 C109.281818,96.4534363 108.707851,95.4249387 108.72314,94.5426593 C108.738017,93.6794338 109.142975,92.775201 109.226033,91.7562304 C109.468595,88.8078431 105.756612,86.349473 103.730579,85.4021618 C99.1347107,83.2511397 94.25,81.3271078 89.2859504,78.7018088 C86.4838843,77.2201593 84.235124,73.970223 81.9867769,72.2259608 C79.7157025,70.4692721 72.4165289,67.567277 69.4991736,66.7947647 C68.8404959,66.5868284 68.6070248,66.3126176 68.4954545,65.7869779 C67.2929752,60.0339363 63.9057851,53.6968505 57.5789256,48.7962647 C55.5301653,47.2002917 57.827686,46.2923309 60.6491736,46.1543971 C105.12686,44.6259412 130.721901,85.656076 120.442149,120.483745" id="Fill-25" fill="#FFFFFF" sketch:type="MSShapeGroup"/>
            <path d="M102.382231,100.762936 C102.350413,100.535946 102.252893,99.767576 102.253719,99.6089314 C102.256198,99.2034142 103.087603,98.6516789 103.475207,98.3430882 C104.063223,97.8737819 104.743802,97.3584975 105.189669,97.1331642 C105.350826,97.0316814 105.457851,97.2665417 105.479752,97.3129338 C107.119421,99.8077549 106.504545,105.974184 105.319835,108.906417 C105.182645,109.204652 104.931818,109.320632 104.829752,109.102341 C104.225207,107.779336 103.328099,106.588466 102.297934,105.934833 C102.107851,105.786958 102.093388,105.478782 102.107851,105.42162 C102.439256,104.028199 102.61157,102.48276 102.382231,100.762936" id="Fill-26" fill="#FFFFFF" sketch:type="MSShapeGroup"/>
            <path d="M82.1049587,115.940627 C82.4582645,114.918343 82.8694215,114.316074 83.6619835,113.819015 C85.1541322,112.880816 87.6338843,112.840223 90.0272727,112.676194 C92.346281,112.519206 94.8239669,112.383343 96.4739669,111.619115 C97.472314,111.158922 98.4710744,109.847929 100.01405,110.515645 C100.744628,110.831277 101.142149,111.502306 101.360331,112.169608 C101.604959,112.913125 101.783058,113.664098 101.707025,114.660701 C101.485124,117.537015 99.1545455,118.94162 98.735124,121.630294 C98.696281,122.045752 98.6256198,122.647194 98.3876033,122.886196 C96.6082645,124.701703 93.0892562,124.319797 89.9078512,123.998779 C88.7690083,123.885284 87.6433884,123.854218 86.8731405,123.486395 C86.3173554,123.225853 85.818595,122.694414 85.3566116,122.264873 C84.338843,121.319218 83.7632231,120.623336 82.7429752,119.476373 C82.3966942,119.087838 81.6123967,118.3845 81.5607438,117.957444 C81.5169421,117.547784 81.9541322,116.371826 82.1049587,115.940627" id="Fill-27" fill="#FFFFFF" sketch:type="MSShapeGroup"/>
            <path d="M26.3909091,149.840039 C25.2231405,148.88113 24.7206612,148.072167 24.0491736,146.936387 C18.6020661,138.208449 15.5487603,107.29926 22.568595,96.8154608 C24.8020661,93.1421961 27.168595,94.8355098 26.3822314,97.6749583 C25.0380165,104.048909 25.8619835,107.620691 28.953719,114.53685 C33.8132231,124.814784 48.8115702,139.084929 52.7822314,144.260554 C59.588843,153.136368 61.8541322,159.603103 61.8231405,161.345294 C61.7863636,162.681554 61.5305785,163.533596 59.1942149,163.336015 C46.8702479,162.356809 34.9561983,157.235032 26.3909091,149.840039" id="Fill-28" fill="#FFFFFF" sketch:type="MSShapeGroup"/>
            <path d="M33.4363636,108.1571 C29.6772727,98.9776667 32.1318182,90.7119926 33.7921488,87.5767941 C34.6297521,85.9949044 35.4479339,84.9614363 36.5161157,85.2588431 C37.6789256,85.5840025 37.9471074,86.7765294 38.1078512,88.9876127 C39.2904959,107.336539 50.3628099,113.514566 64.2698347,119.9929 C75.2413223,125.615049 87.7243802,132.042848 98.1863636,147.613216 C99.7698347,149.86075 99.9983471,151.224762 98.2107438,152.512559 C91.8322314,156.877564 86.053719,159.919978 77.5995868,161.896201 C76.3268595,162.19485 75.0144628,161.97076 73.8871901,159.055924 C62.142562,128.722495 42.4239669,130.089821 33.4363636,108.1571" id="Fill-29" fill="#FFFFFF" sketch:type="MSShapeGroup"/>
            <path d="M106.180579,145.450181 C104.392562,147.241664 103.378512,145.837059 102.794215,144.686782 C100.290083,139.349199 97.8442149,134.881882 93.9,130.554985 C93.2165289,129.86076 93.7429752,128.88611 94.7475207,128.985108 C96.031405,129.088248 96.8727273,129.017831 98.285124,128.409348 C99.4797521,127.894892 100.84876,126.215662 101.531405,123.803684 C102.028926,122.044096 102.052066,121.526326 103.127686,121.416559 C103.395041,121.391292 103.884298,121.458809 104.180992,121.544551 C105.490083,121.918174 106.895868,122.990164 107.92314,123.780074 C110.557851,125.797718 114.48843,130.250537 115.176446,131.691179 C115.613223,132.608252 115.195041,133.230819 114.94876,133.754387 C113.570248,136.580167 109.222314,142.43552 106.180579,145.450181" id="Fill-30" fill="#FFFFFF" sketch:type="MSShapeGroup"/>
            <path d="M106.180579,145.452667 C104.392562,147.24415 103.378512,145.839544 102.794215,144.689267 C100.290083,139.351684 97.8442149,134.884368 93.9,130.557471 C93.2165289,129.863245 93.7429752,128.888181 94.7475207,128.987593 C96.031405,129.090733 96.8727273,129.020316 98.285124,128.411833 C99.4797521,127.897377 100.84876,126.218147 101.531405,123.806169 C102.028926,122.046581 102.052066,121.528811 103.127686,121.419044 C103.395041,121.393777 103.884298,121.461294 104.180992,121.547037 C105.490083,121.920659 106.895868,122.99265 107.92314,123.782559 C110.557851,125.799789 114.48843,130.252608 115.176446,131.693664 C115.613223,132.610738 115.195041,133.233304 114.94876,133.756873 C113.570248,136.582652 109.222314,142.437591 106.180579,145.452667 L106.180579,145.452667 Z M33.4442149,108.147988 C29.685124,98.9689681 32.1396694,90.7032941 33.8,87.5680956 C34.6371901,85.9862059 35.4553719,84.9527377 36.5239669,85.2501446 C37.6863636,85.5753039 37.9549587,86.7678309 38.1152893,88.9789142 C39.2983471,107.327841 50.3702479,113.505868 64.2772727,119.983787 C75.2491736,125.60635 87.7322314,132.033735 98.1942149,147.604103 C99.777686,149.852051 100.006198,151.216064 98.2181818,152.503446 C91.8396694,156.868451 86.0615702,159.911279 77.607438,161.887088 C76.3347107,162.185738 75.0219008,161.961647 73.8946281,159.046811 C62.15,128.713797 42.431405,130.080708 33.4442149,108.147988 L33.4442149,108.147988 Z M6.51280992,93.1852745 C6.6446281,92.4409289 6.70206612,92.2338211 7.14917355,91.6485343 C7.85785124,90.5868995 16.4541322,80.9170343 29.7789256,78.5742304 C31.5318182,78.3228015 32.7954545,78.4441667 33.0826446,79.1487475 C33.5863636,80.3839387 32.5661157,81.0959755 31.3384298,81.8080123 C9.96818182,94.6105907 11.4830579,113.642973 11.2785124,121.428571 C11.3429752,124.613061 9.04834711,125.192963 8.47561983,123.692674 C5.9677686,116.834919 3.85867769,106.085608 6.51280992,93.1852745 L6.51280992,93.1852745 Z M20.9619835,65.1358309 C21.3995868,64.6702525 21.685124,64.4565172 22.3347107,64.2730196 C30.5421488,62.2296936 38.7752066,63.5307451 44.7041322,66.1808971 C46.035124,66.7715686 46.6347107,67.6086985 45.7607438,68.170375 C44.6491736,68.8177941 41.2805785,71.0139657 39.418595,72.7532574 C38.8772727,73.2209069 37.9123967,73.2453456 37.3429752,73.1695441 C30.392562,72.2512279 26.7826446,71.7086054 16.3338843,75.6788627 C14.7305785,76.3548627 13.288843,75.4353039 14.0264463,74.1723603 C15.4177686,71.6742255 18.6528926,67.4960319 20.9619835,65.1358309 L20.9619835,65.1358309 Z M82.1049587,115.925301 C82.4582645,114.903017 82.8694215,114.300748 83.6619835,113.803275 C85.1541322,112.86549 87.6338843,112.824897 90.0272727,112.660868 C92.346281,112.50388 94.8239669,112.368017 96.4739669,111.603789 C97.472314,111.143596 98.4710744,109.832603 100.01405,110.500319 C100.744628,110.815951 101.142149,111.48698 101.360331,112.154282 C101.604959,112.897799 101.783058,113.648358 101.707025,114.645375 C101.485124,117.521689 99.1545455,118.926294 98.735124,121.614968 C98.696281,122.030426 98.6256198,122.631868 98.3876033,122.87087 C96.6082645,124.686377 93.0892562,124.304471 89.9078512,123.983453 C88.7690083,123.869958 87.6433884,123.838892 86.8731405,123.471069 C86.3173554,123.210113 85.818595,122.679088 85.3566116,122.249547 C84.338843,121.303892 83.7632231,120.60801 82.7429752,119.461047 C82.3966942,119.072512 81.6123967,118.369174 81.5607438,117.942118 C81.5169421,117.532458 81.9541322,116.3565 82.1049587,115.925301 L82.1049587,115.925301 Z M34.4665289,56.916549 C32.6694215,56.711098 32.6442149,55.3938922 33.403719,54.8806789 C35.3561983,53.5092108 38.5243802,51.8535907 41.711157,50.5869191 C42.6652893,50.208326 43.1578512,50.1093284 44.0318182,50.1975564 C46.3801653,50.4332451 50.2690083,52.0180343 54.7309917,55.209152 C60.0822314,59.0365049 64.842562,66.3076471 61.6590909,65.7190466 C59.6454545,65.3694485 60.522314,65.4659608 58.1619835,65.2062475 C55.7504132,64.9916838 54.1677686,65.239799 53.0561983,65.1263039 C52.5719008,65.0869534 52.1904959,64.763451 51.8495868,64.4838554 C47.3330579,60.4241275 42.1157025,57.8477059 34.4665289,56.916549 L34.4665289,56.916549 Z M48.6566116,73.3045784 C50.7780992,71.6216201 56.8946281,69.2833725 64.1764463,71.0789975 C66.2363636,71.5880686 71.6252066,73.3542843 75.2053719,75.1118015 C78.714876,76.7247574 81.2152893,79.7191225 84.4764463,81.5317304 C88.5954545,83.8248284 94.2561983,84.8959902 98.614876,87.0341716 C99.4917355,87.4637132 101.809504,89.0190931 101.161157,89.3512941 C98.9607438,90.318902 95.138843,89.7609534 92.8516529,89.2344853 C91.6975207,88.9656593 90.2607438,88.6744657 89.6909091,89.702549 C89.0719008,90.8180319 89.5157025,92.5279142 89.9933884,93.5692525 C90.5628099,94.8139706 91.3590909,95.7090907 92.3917355,96.1875098 C93.8070248,96.8415564 95.7471074,96.8759363 97.0483471,97.6277377 C99.4735537,99.0240588 99.5661157,103.594515 97.9772727,105.86276 C96.6475207,107.762767 92.6896694,108.107809 89.0231405,107.930525 C85.4739669,107.757382 81.357438,107.385417 78.7417355,108.480189 C76.1652893,109.55425 74.9219008,111.369343 73.3921488,113.624333 C73.1871901,113.903929 72.8520661,113.962333 72.5309917,113.743213 C63.4239669,108.257341 51.9280992,105.431975 45.7859504,96.7363456 C44.272314,94.5907083 43.3198347,91.9815637 42.8082645,88.8799167 C41.6008264,81.5425 44.6954545,76.4422623 48.6566116,73.3045784 L48.6566116,73.3045784 Z M102.382231,100.74761 C102.350413,100.52062 102.252893,99.75225 102.253719,99.5936054 C102.256198,99.1880882 103.087603,98.6363529 103.475207,98.3277623 C104.063223,97.8584559 104.743802,97.3431716 105.189669,97.1178382 C105.350826,97.0163554 105.457851,97.2512157 105.479752,97.2976078 C107.119421,99.7924289 106.504545,105.958858 105.319835,108.891091 C105.182645,109.189326 104.931818,109.305306 104.829752,109.087015 C104.225207,107.76401 103.328099,106.57314 102.297934,105.919507 C102.107851,105.771632 102.093388,105.463456 102.107851,105.406294 C102.439256,104.012873 102.61157,102.467434 102.382231,100.74761 L102.382231,100.74761 Z M120.442149,120.468419 C119.960331,121.97575 119.388017,123.86623 118.16157,122.989336 C115.883058,121.289809 110.818595,118.022475 105.91405,116.209039 C105.650826,116.149806 105.680579,115.78364 105.773554,115.576946 C106.121074,114.804434 106.27686,114.09074 106.427273,113.17698 C106.566942,112.322039 107.182231,111.750836 107.605372,111.065309 C108.862397,109.052635 109.543388,105.544228 109.817769,103.355512 C110.026033,101.344495 109.902066,99.1035882 109.467355,97.2358897 C109.281818,96.4381103 108.707851,95.4096127 108.72314,94.5273333 C108.738017,93.6641078 109.142975,92.759875 109.226033,91.7409044 C109.468595,88.7925172 105.756612,86.3345613 103.730579,85.3868358 C99.1347107,83.2358137 94.25,81.3121961 89.2859504,78.6868971 C86.4838843,77.2052475 84.235124,73.9548971 81.9867769,72.2106348 C79.7157025,70.4543603 72.4165289,67.551951 69.4991736,66.7798529 C68.8404959,66.5719167 68.6070248,66.2972917 68.4954545,65.771652 C67.2929752,60.0190245 63.9057851,53.6815245 57.5789256,48.7809387 C55.5301653,47.1849657 57.827686,46.2770049 60.6491736,46.1390711 C105.12686,44.6110294 130.721901,85.6411642 120.442149,120.468419 L120.442149,120.468419 Z M26.3909091,149.824713 C25.2231405,148.865804 24.7206612,148.056841 24.0491736,146.921061 C18.6020661,138.193123 15.5487603,107.283934 22.568595,96.8001348 C24.8020661,93.1264559 27.168595,94.8201838 26.3822314,97.6596324 C25.0380165,104.033583 25.8619835,107.605365 28.953719,114.521525 C33.8132231,124.799458 48.8115702,139.069603 52.7822314,144.245228 C59.588843,153.121042 61.8541322,159.587777 61.8231405,161.329968 C61.7863636,162.666228 61.5305785,163.51827 59.1942149,163.320275 C46.8702479,162.341483 34.9561983,157.219706 26.3909091,149.824713 L26.3909091,149.824713 Z M63.8082645,40.3959706 C28.6487603,40.3959706 0,69.0530686 0,104.690115 C0,140.325919 28.8231405,169 63.8479339,169 C99.3995868,169 128.170661,140.340831 128.170661,104.704613 C128.170661,69.0663235 99.3582645,40.3959706 63.8082645,40.3959706 L63.8082645,40.3959706 Z" id="Fill-32" fill="#1A1918" sketch:type="MSShapeGroup"/>
            <path d="M66.8867769,85.9215882 C68.4710744,86.4472279 70.185124,86.8908529 71.3975207,87.568924 C72.1161157,87.9723701 72.8380165,89.0493309 73.8404959,88.920924 C74.8347107,88.7925172 75.4561983,86.8175368 75.6524793,85.7948382 C75.9355372,84.3206446 75.7809917,82.4363775 75.2743802,81.4865809 C74.4347107,79.9096618 72.0450413,79.5505368 69.542562,79.6710735 C67.8413223,79.7506029 66.8867769,79.9017917 65.581405,80.3035809 C64.196281,80.7310515 62.2727273,81.6518529 63.0958678,83.5982525 C63.6454545,84.9055172 65.5194215,85.4676078 66.8867769,85.9215882" id="Fill-34" fill="#1A1918" sketch:type="MSShapeGroup"/>
        </g>
    </g>
</svg>